<svg viewBox="0 0 176 36" version="1.1" xmlns="http://www.w3.org/2000/svg" xmlns:xlink="http://www.w3.org/1999/xlink" x="0px" y="0px">
    <defs>
        <polygon id="path-1" points="6.9529458 6.52841618 0.00557327257 6.52841618 0.00557327257 0.0757196342 6.9529458 0.0757196342 6.9529458 6.52841618"></polygon>
        <polygon id="path-3" points="6.95986434 7.96977977 0.0826381794 7.96977977 0.0826381794 0.0156628177 6.95986434 0.0156628177 6.95986434 7.96977977"></polygon>
    </defs>
    <g id="Page-1" stroke="none" stroke-width="1" fill="none" fill-rule="evenodd">
        <g id="Converted-EPS">
            <path d="M52.6719399,19.8875758 L58.3481258,19.8875758 C59.608358,19.8875758 60.5770505,19.6411026 61.2528578,19.1445048 C61.8836946,18.6942228 62.1996415,17.9276096 62.1996415,16.8465869 C62.1996415,15.7655642 61.8836946,14.9780992 61.2528578,14.4818858 C60.6668955,14.0322764 59.6761982,13.8061745 58.2798052,13.8061745 L52.6719399,13.8061745 L52.6719399,19.8875758 Z M52.6719399,9.81936282 L58.1449896,9.81936282 C59.3158573,9.81936282 60.1723156,9.6167071 60.7128269,9.21149174 C61.2528578,8.80569985 61.5233537,8.17582396 61.5233537,7.31888525 C61.5233537,6.464541 61.2528578,5.83312766 60.7128269,5.42733576 C60.2621606,5.06747532 59.383217,4.88624787 58.0771494,4.88624787 L52.6719399,4.88624787 L52.6719399,9.81936282 Z M48.0766805,24.0775237 L48.0766805,3.26471382 C48.0766805,2.58900257 48.3133524,2.0149555 48.7854471,1.54189997 C49.2585987,1.0681718 49.8335106,0.83207644 50.5093179,0.83207644 L59.0234527,0.83207644 C61.4106391,0.83207644 63.2353093,1.32877034 64.4969829,2.31898712 C65.7576956,3.40049028 66.3891089,4.86433914 66.3891089,6.71149463 C66.3891089,7.88341933 66.1405217,8.87363612 65.6459419,9.68406682 C65.1487675,10.4507762 64.4515319,11.0586472 63.5506796,11.5082566 C64.7215473,12.0049505 65.6224957,12.7025705 66.2538129,13.6035188 C66.8387183,14.459977 67.1321799,15.5858742 67.1321799,16.9818829 C67.1321799,19.2348303 66.4110177,20.9921408 64.9701345,22.2528535 C63.4833199,23.4696526 61.3886342,24.0775237 58.6860775,24.0775237 L48.0766805,24.0775237 L48.0766805,24.0775237 Z" id="Fill-1" fill="#50351E"></path>
            <path d="M79.3871336,15.0229737 C78.7557203,15.3378636 77.8773533,15.6308447 76.7524171,15.9008602 L75.1982428,16.2387158 C74.386659,16.4648177 73.8011771,16.7573184 73.4414127,17.1176593 C73.1254658,17.6132001 72.9676846,18.1094136 72.9676846,18.6034169 C72.9676846,19.2797047 73.1709168,19.8202161 73.5766126,20.2255275 C73.9813475,20.5868293 74.5668294,20.7660389 75.3334427,20.7660389 C76.5936749,20.7660389 77.5853331,20.4066589 78.3061109,19.6844396 C79.0267927,18.9652953 79.3871336,17.9736371 79.3871336,16.7118674 L79.3871336,15.0229737 Z M80.4681563,23.3338762 C79.5229101,23.830474 78.5202015,24.132872 77.4616641,24.2456828 C76.4030305,24.358013 75.4681621,24.4153793 74.657251,24.4153793 C73.0356208,24.4153793 71.6166464,23.9756673 70.4004238,23.0973003 C69.1836247,22.2189334 68.576234,20.7660389 68.576234,18.7387129 C68.576234,16.8465869 69.1272193,15.4955487 70.2316882,14.6850219 C71.3341391,13.8740147 72.7426396,13.3335034 74.4550757,13.062527 C74.6801206,13.062527 74.9495595,13.0285108 75.2656025,12.9617276 C75.5804924,12.8942718 75.9414098,12.837386 76.3466252,12.792992 C78.3285001,12.5224961 79.3196778,11.9370142 79.3196778,11.036162 C79.3196778,10.3603546 78.9703874,9.92064263 78.2726713,9.718083 C77.5734178,9.51485074 76.9315305,9.41405137 76.3466252,9.41405137 C75.7152118,9.41405137 75.1523113,9.50495337 74.657251,9.68406682 C74.161518,9.86423727 73.8011771,10.202189 73.5766126,10.6983063 L69.0483287,10.6983063 C69.2284991,9.3018172 69.8593359,8.15285823 70.9409352,7.25200598 C72.1572538,6.21537728 73.8905416,5.69735121 76.143489,5.69735121 C78.6664518,5.69735121 80.5584818,6.12658929 81.8196749,6.98102963 C83.1263191,7.88341933 83.7797372,9.14355547 83.7797372,10.7650895 L83.7797372,16.9145232 C83.7797372,18.7167081 83.4516829,20.1236712 82.7999944,21.1378146 C82.1465762,22.1520541 81.3690086,22.8841707 80.4681563,23.3338762 L80.4681563,23.3338762 Z" id="Fill-2" fill="#50351E"></path>
            <path d="M90.2946046,6.10314311 L90.2946046,12.7250557 L96.0382463,6.10314311 L101.714913,6.10314311 L95.2949832,12.9950712 L101.781792,24.0775237 L96.1060865,24.0775237 L92.7950822,17.9960263 C92.1193709,16.7798037 91.532832,16.2617776 91.0377717,16.4419481 C90.5410778,16.6221185 90.2946046,16.8925183 90.2946046,17.2523788 L90.2946046,24.0775237 L85.5641454,24.0775237 L85.5641454,0.83207644 L87.9972632,0.83207644 C88.627043,0.83207644 89.1681309,1.05769789 89.6187973,1.50797988 C90.0689831,1.95864623 90.2946046,2.47715276 90.2946046,3.06263465 L90.2946046,6.10314311" id="Fill-3" fill="#50351E"></path>
            <path d="M105.8793,13.2650866 L112.771709,13.2650866 C112.680903,12.0493445 112.36659,11.1489727 111.825502,10.5625299 C111.24002,9.932654 110.406623,9.6167071 109.325985,9.6167071 C108.334327,9.6167071 107.5238,9.932654 106.892387,10.5625299 C106.26155,11.1944237 105.923694,12.0946994 105.8793,13.2650866 Z M113.987547,18.5365377 L117.366968,18.5365377 C116.870947,20.4286637 115.924548,21.8700273 114.528635,22.8607245 C113.132146,23.8978337 111.374835,24.4153793 109.258145,24.4153793 C106.690308,24.4153793 104.685467,23.5818868 103.244007,21.9149017 C101.802163,20.2933677 101.081962,17.9736371 101.081962,14.9550374 C101.081962,12.0727907 101.779678,9.81936282 103.176648,8.19782877 C104.617531,6.53132418 106.622948,5.69735121 109.190209,5.69735121 C111.893342,5.69735121 113.987547,6.50835846 115.474842,8.12998859 C116.915725,9.79745409 117.636984,12.1167042 117.636984,15.0903334 L117.636984,15.5630046 L117.636984,15.8335005 C117.636984,16.0596024 117.614018,16.2168071 117.569624,16.3060755 L105.8793,16.3060755 C105.923694,17.7025647 106.26155,18.7387129 106.892387,19.4144242 C107.477869,20.1356825 108.356236,20.495543 109.52816,20.495543 C110.293717,20.495543 110.947615,20.3382421 111.488127,20.0222952 C111.623423,19.9784778 111.746611,19.8991067 111.859902,19.7858155 C111.971752,19.6745423 112.096478,19.5502967 112.231294,19.4144242 C112.275688,19.2797047 112.444808,19.1001108 112.738461,18.8743933 C113.03029,18.6493484 113.447516,18.5365377 113.987547,18.5365377 L113.987547,18.5365377 Z" id="Fill-4" fill="#50351E"></path>
            <path d="M118.995325,18.1313223 L123.590488,18.1313223 C123.633729,19.032655 123.971777,19.7084623 124.603671,20.1580717 C125.279862,20.6088341 126.180234,20.8333986 127.306131,20.8333986 C128.117331,20.8333986 128.815431,20.6761939 129.401489,20.3608235 C129.94152,20.046318 130.212497,19.6175604 130.212497,19.0765685 C130.212497,18.2655613 129.266193,17.6581707 127.374644,17.2523788 C126.56306,17.1176593 125.955766,16.9818829 125.549974,16.8465869 C123.16173,16.2617776 121.562682,15.5630046 120.752635,14.7524778 C119.850149,13.9413744 119.400636,12.8603517 119.400636,11.5082566 C119.400636,9.79745409 120.052805,8.37799922 121.360026,7.25200598 C122.711641,6.21537728 124.468471,5.69735121 126.630996,5.69735121 C128.972732,5.69735121 130.842373,6.21537728 132.239823,7.25200598 C133.54541,8.37799922 134.243126,9.842809 134.334508,11.6435526 L131.428335,11.6435526 C130.571781,11.6435526 129.918939,11.2622639 129.469426,10.4956506 C129.288679,10.3154802 129.107932,10.1353097 128.928338,9.95456272 C128.387826,9.54886692 127.644179,9.34621119 126.698837,9.34621119 C125.796447,9.34621119 125.121216,9.48150719 124.670934,9.75200309 C124.265815,10.022499 124.063063,10.4267534 124.063063,10.9677452 C124.063063,11.6895801 125.234027,12.2973551 127.576819,12.792992 C127.846739,12.883894 128.083891,12.9512537 128.28597,12.9950712 C128.489683,13.0405222 128.679655,13.062527 128.860498,13.062527 C131.15832,13.6489698 132.756407,14.3242006 133.658221,15.0903334 C134.513622,15.9008602 134.941803,16.9818829 134.941803,18.333978 C134.941803,20.3163334 134.221121,21.8470616 132.779854,22.9285647 C131.428335,23.9198385 129.401489,24.4153793 126.698837,24.4153793 C124.130999,24.4153793 122.215427,23.8978337 120.955195,22.8607245 C119.647109,21.8251528 118.995325,20.3163334 118.995325,18.333978 L118.995325,18.1313223" id="Fill-5" fill="#50351E"></path>
            <path d="M147.028405,15.0229737 C146.396127,15.3378636 145.517856,15.6308447 144.392632,15.9008602 L142.838746,16.2387158 C142.027546,16.4648177 141.441776,16.7573184 141.081916,17.1176593 C140.765777,17.6132001 140.608764,18.1094136 140.608764,18.6034169 C140.608764,19.2797047 140.811324,19.8202161 141.217116,20.2255275 C141.622427,20.5868293 142.207236,20.7660389 142.973946,20.7660389 C144.234082,20.7660389 145.22574,20.4066589 145.946422,19.6844396 C146.667104,18.9652953 147.028405,17.9736371 147.028405,16.7118674 L147.028405,15.0229737 Z M148.109428,23.3338762 C147.162933,23.830474 146.159744,24.132872 145.101783,24.2456828 C144.043437,24.358013 143.109146,24.4153793 142.297658,24.4153793 C140.676604,24.4153793 139.25763,23.9756673 138.040831,23.0973003 C136.824608,22.2189334 136.21616,20.7660389 136.21616,18.7387129 C136.21616,16.8465869 136.767626,15.4955487 137.872672,14.6850219 C138.975219,13.8740147 140.383143,13.3335034 142.095483,13.062527 C142.320624,13.062527 142.590639,13.0285108 142.906105,12.9617276 C143.22138,12.8942718 143.581817,12.837386 143.987128,12.792992 C145.968523,12.5224961 146.961142,11.9370142 146.961142,11.036162 C146.961142,10.3603546 146.61041,9.92064263 145.91279,9.718083 C145.214209,9.51485074 144.572322,9.41405137 143.987128,9.41405137 C143.355619,9.41405137 142.793199,9.50495337 142.297658,9.68406682 C141.802021,9.86423727 141.441776,10.202189 141.217116,10.6983063 L136.689408,10.6983063 C136.869002,9.3018172 137.500319,8.15285823 138.581919,7.25200598 C139.798237,6.21537728 141.531525,5.69735121 143.784472,5.69735121 C146.306763,5.69735121 148.198793,6.12658929 149.460466,6.98102963 C150.766342,7.88341933 151.41976,9.14355547 151.41976,10.7650895 L151.41976,16.9145232 C151.41976,18.7167081 151.093051,20.1236712 150.440593,21.1378146 C149.786214,22.1520541 149.0098,22.8841707 148.109428,23.3338762 L148.109428,23.3338762 Z" id="Fill-6" fill="#50351E"></path>
            <path d="M153.148435,0.83207644 L155.581457,0.83207644 C156.211813,0.83207644 156.752805,1.04626307 157.203471,1.47454024 C157.653177,1.90329786 157.87899,2.43179785 157.87899,3.06263465 L157.87899,24.0775237 L153.148435,24.0775237 L153.148435,0.83207644" id="Fill-7" fill="#50351E"></path>
            <path d="M164.102798,13.2650866 L170.995399,13.2650866 C170.904113,12.0493445 170.589896,11.1489727 170.048904,10.5625299 C169.46371,9.932654 168.630602,9.6167071 167.548618,9.6167071 C166.557921,9.6167071 165.746914,9.932654 165.115597,10.5625299 C164.48524,11.1944237 164.147,12.0946994 164.102798,13.2650866 Z M172.210949,18.5365377 L175.589505,18.5365377 C175.093676,20.4286637 174.148142,21.8700273 172.751941,22.8607245 C171.354779,23.8978337 169.597276,24.4153793 167.481355,24.4153793 C164.912845,24.4153793 162.909349,23.5818868 161.467025,21.9149017 C160.0247,20.2933677 159.30498,17.9736371 159.30498,14.9550374 C159.30498,12.0727907 160.001639,9.81936282 161.399761,8.19782877 C162.840164,6.53132418 164.845581,5.69735121 167.414091,5.69735121 C170.116167,5.69735121 172.210949,6.50835846 173.697475,8.12998859 C175.138839,9.79745409 175.860482,12.1167042 175.860482,15.0903334 L175.860482,15.5630046 L175.860482,15.8335005 C175.860482,16.0596024 175.836459,16.2168071 175.792257,16.3060755 L164.102798,16.3060755 C164.147,17.7025647 164.48524,18.7387129 165.115597,19.4144242 C165.70079,20.1356825 166.580022,20.495543 167.75137,20.495543 C168.516254,20.495543 169.170633,20.3382421 169.710664,20.0222952 C169.846152,19.9784778 169.970109,19.8991067 170.083496,19.7858155 C170.194962,19.6745423 170.31988,19.5502967 170.454407,19.4144242 C170.498609,19.2797047 170.66869,19.1001108 170.960806,18.8743933 C171.253884,18.6493484 171.670918,18.5365377 172.210949,18.5365377 L172.210949,18.5365377 Z" id="Fill-8" fill="#50351E"></path>
            <polyline id="Fill-9" fill="#ED952D" points="50.0894968 33.6590362 50.0894968 28.0658728 48 28.0658728 48 27.3179973 53.0265153 27.3179973 53.0265153 28.0658728 50.9276977 28.0658728 50.9276977 33.6590362 50.0894968 33.6590362"></polyline>
            <path d="M53.7869787,33.6590362 L53.7869787,27.3179973 L54.5650268,27.3179973 L54.5650268,29.5929495 C54.9285387,29.1719753 55.387565,28.9615362 55.9406642,28.9615362 C56.2811143,28.9615362 56.5762095,29.0283194 56.8273911,29.1625583 C57.0785727,29.2962208 57.2576862,29.4806192 57.365308,29.7182521 C57.4744673,29.9548279 57.5287586,30.2979685 57.5287586,30.7470974 L57.5287586,33.6590362 L56.7506145,33.6590362 L56.7506145,30.7470974 C56.7506145,30.3580253 56.6654779,30.075422 56.4973188,29.8973655 C56.3281028,29.7197895 56.0894129,29.6320585 55.7802885,29.6320585 C55.5500547,29.6320585 55.3337541,29.6916349 55.1306179,29.8106915 C54.9274817,29.9308051 54.7818079,30.0931988 54.6956144,30.2979685 C54.6089404,30.5020656 54.5650268,30.7851494 54.5650268,31.1450098 L54.5650268,33.6590362 L53.7869787,33.6590362" id="Fill-10" fill="#ED952D"></path>
            <path d="M59.3017319,30.9210219 L61.8664943,30.9210219 C61.8330547,30.5339678 61.7354263,30.2441576 61.5724562,30.0513992 C61.3243494,29.7516917 61.0037902,29.6012133 60.6095292,29.6012133 C60.2507257,29.6012133 59.9509221,29.721327 59.7070434,29.9605933 C59.4626842,30.200244 59.3273882,30.5199385 59.3017319,30.9210219 Z M61.8591914,32.1795245 L62.6628958,32.2798434 C62.5359597,32.7493436 62.3010174,33.1138164 61.9578768,33.3739345 C61.6136792,33.6328995 61.1756007,33.76243 60.6428727,33.76243 C59.9712934,33.76243 59.4386615,33.5556424 59.0453614,33.1419711 C58.6511004,32.7283958 58.4546906,32.1477184 58.4546906,31.4013804 C58.4546906,30.6284251 58.6536949,30.0284335 59.0516073,29.6012133 C59.4495198,29.1745697 59.9650475,28.9615362 60.5990553,28.9615362 C61.2142293,28.9615362 61.7155355,29.1704378 62.1051841,29.5892981 C62.4942562,30.0060443 62.6890325,30.5946011 62.6890325,31.3533349 C62.6890325,31.3998429 62.687495,31.4682596 62.6848045,31.5606991 L59.2589715,31.5606991 C59.2876066,32.0656568 59.4303016,32.451654 59.6871526,32.7206124 C59.9436192,32.9890904 60.263698,33.1226568 60.6465242,33.1226568 C60.932779,33.1226568 61.1756007,33.0474176 61.3776799,32.8971314 C61.5797591,32.7472296 61.7401348,32.5080593 61.8591914,32.1795245 L61.8591914,32.1795245 Z" id="Fill-11" fill="#ED952D"></path>
            <path d="M67.040317,30.332273 L68.6812614,30.332273 C69.2222532,30.332273 69.6066168,30.2315697 69.8343523,30.0300671 C70.0630486,29.8284683 70.1763398,29.5432705 70.1763398,29.1772603 C70.1763398,28.9124337 70.1095566,28.6846983 69.9753176,28.4956875 C69.8410786,28.3071571 69.6640792,28.1829116 69.4462411,28.1228547 C69.3042187,28.0847067 69.0436202,28.0658728 68.662908,28.0658728 L67.040317,28.0658728 L67.040317,30.332273 Z M66.202116,33.6590362 L66.202116,27.3179973 L68.5940109,27.3179973 C69.0144086,27.3179973 69.3366014,27.3378881 69.5585714,27.3775737 C69.8698098,27.4303276 70.1304084,27.5290129 70.341424,27.6746868 C70.5518631,27.8193997 70.7205026,28.0246498 70.8500332,28.2862093 C70.9780262,28.5489218 71.042215,28.8367141 71.042215,29.1520844 C71.042215,29.6910583 70.869924,30.1470097 70.5278403,30.5204189 C70.1836427,30.8938282 69.5648173,31.0812055 68.667136,31.0812055 L67.040317,31.0812055 L67.040317,33.6590362 L66.202116,33.6590362 L66.202116,33.6590362 Z" id="Fill-12" fill="#ED952D"></path>
            <path d="M75.0206668,33.6590362 L75.0206668,32.9839015 C74.6645539,33.503465 74.1782378,33.76243 73.5630638,33.76243 C73.2930484,33.76243 73.0392723,33.7113097 72.80433,33.6062823 C72.5697721,33.503465 72.3943101,33.373358 72.2810189,33.2156728 C72.1671512,33.0584681 72.0867231,32.8662862 72.0412721,32.6380703 C72.0093699,32.4855741 71.9932267,32.2427524 71.9932267,31.9116231 L71.9932267,29.0654104 L72.7730044,29.0654104 L72.7730044,31.613453 C72.7730044,32.019341 72.7875141,32.2939688 72.8189358,32.4355107 C72.8685187,32.6396078 72.972393,32.8005601 73.1300782,32.9170222 C73.2899735,33.0338688 73.4858067,33.0919077 73.7192115,33.0919077 C73.9531929,33.0919077 74.1725684,33.0329079 74.3772421,32.9127942 C74.5809548,32.7932572 74.7266286,32.6301909 74.8122456,32.4244603 C74.8964212,32.2176726 74.9391817,31.917869 74.9391817,31.5262025 L74.9391817,29.0654104 L75.7179024,29.0654104 L75.7179024,33.6590362 L75.0206668,33.6590362" id="Fill-13" fill="#ED952D"></path>
            <g id="Group-17" transform="translate(76.923363, 28.885817)">
                <mask id="mask-2" fill="white">
                    <use xlink:href="#path-1"></use>
                </mask>
                <g id="Clip-15"></g>
                <path d="M0.00557327257,4.77321968 L0.00557327257,0.179593904 L0.705883798,0.179593904 L0.705883798,0.87577252 C0.884516793,0.549928257 1.05008142,0.334204172 1.20257769,0.230810357 C1.35344042,0.127416542 1.5194855,0.0757196342 1.70071295,0.0757196342 C1.96342549,0.0757196342 2.23084648,0.159799177 2.50086193,0.326420809 L2.23401748,1.04864006 C2.04279658,0.935829337 1.85330531,0.880480975 1.66266095,0.880480975 C1.49238787,0.880480975 1.33931505,0.931120882 1.20411515,1.03297724 C1.0683387,1.1358906 0.97224779,1.27791296 0.914208883,1.45962087 C0.827534885,1.73645877 0.784197886,2.03981776 0.784197886,2.36835257 L0.784197886,4.77321968 L0.00557327257,4.77321968" id="Fill-14" fill="#ED952D" mask="url(#mask-2)"></path>
                <path d="M3.66903908,2.50259156 C3.66903908,3.09258973 3.78867225,3.52980335 4.02832297,3.81279107 C4.26701279,4.09587488 4.55682296,4.23684024 4.89736913,4.23684024 C5.24358467,4.23684024 5.54079384,4.09020552 5.78678656,3.79712825 C6.03325973,3.50472363 6.15702482,3.05194328 6.15702482,2.43782629 C6.15702482,1.85186395 6.03537373,1.41320896 5.79456992,1.12224569 C5.5549192,0.830898067 5.26664648,0.685704707 4.93244231,0.685704707 C4.6007365,0.685704707 4.30727488,0.840314976 4.0523457,1.14991988 C3.79703216,1.46010132 3.66903908,1.91028722 3.66903908,2.50259156 Z M2.9640201,6.53418163 L2.9640201,0.179593904 L3.67326708,0.179593904 L3.67326708,0.776606705 C3.84036916,0.542529257 4.02947607,0.367643808 4.24097215,0.250701175 C4.45083469,0.133662451 4.70518732,0.0757196342 5.0054714,0.0757196342 C5.39761839,0.0757196342 5.74344956,0.176999449 6.0442141,0.378598171 C6.34344118,0.579620347 6.57011963,0.865298611 6.7226159,1.23198151 C6.87616917,1.60068232 6.9529458,2.00330321 6.9529458,2.4419582 C6.9529458,2.91203492 6.86723271,3.33454663 6.69965017,3.71151126 C6.52995363,4.08809152 6.28501791,4.37626815 5.96426646,4.57632941 C5.6426502,4.77735159 5.30421803,4.8766135 4.94906604,4.8766135 C4.6905815,4.8766135 4.4570806,4.82222604 4.25134997,4.71325895 C4.04504279,4.60304269 3.87534625,4.46457569 3.74216426,4.29689706 L3.74216426,6.53418163 L2.9640201,6.53418163 L2.9640201,6.53418163 Z" id="Fill-16" fill="#ED952D" mask="url(#mask-2)"></path>
            </g>
            <path d="M85.3254556,31.3622714 C85.3254556,31.9502516 85.4523916,32.3905402 85.7098192,32.6829448 C85.9662858,32.9760221 86.2890552,33.1226568 86.6786077,33.1226568 C87.0650853,33.1226568 87.3867977,32.9754455 87.6432643,32.6818878 C87.9001153,32.3879457 88.0280123,31.9393934 88.0280123,31.3356542 C88.0280123,30.7684296 87.8996348,30.3381345 87.6405738,30.0451533 C87.3831462,29.7521722 87.0624909,29.6048648 86.6786077,29.6048648 C86.2890552,29.6048648 85.9662858,29.7516917 85.7098192,30.0420784 C85.4523916,30.3345791 85.3254556,30.7732341 85.3254556,31.3622714 Z M84.5249222,31.3622714 C84.5249222,30.5119629 84.7609215,29.8817027 85.2346497,29.4717789 C85.6294872,29.1312327 86.1114792,28.9615362 86.6786077,28.9615362 C87.3105015,28.9615362 87.8259331,29.1683238 88.2270166,29.5819952 C88.6281961,29.9955704 88.8281613,30.5674074 88.8281613,31.2975061 C88.8281613,31.8886574 88.7393733,32.3530647 88.5623738,32.6917852 C88.3858548,33.0307939 88.1273703,33.2939869 87.7883616,33.4815563 C87.449449,33.6684531 87.0796911,33.76243 86.6786077,33.76243 C86.0357595,33.76243 85.5156195,33.5572759 85.1191484,33.1436046 C84.7227734,32.7316629 84.5249222,32.1383015 84.5249222,31.3622714 L84.5249222,31.3622714 Z" id="Fill-18" fill="#ED952D"></path>
            <path d="M89.4297864,32.2877229 L90.1995707,32.1659757 C90.2429077,32.4756767 90.3635018,32.711676 90.5620256,32.8767602 C90.7588198,33.0401147 91.0346007,33.1226568 91.3891761,33.1226568 C91.747403,33.1226568 92.0117491,33.0502042 92.1850971,32.9033773 C92.3584451,32.7580879 92.4446386,32.5884874 92.4446386,32.3911167 C92.4446386,32.2150782 92.368919,32.0776682 92.2148853,31.9759079 C92.108897,31.9069146 91.8440705,31.8192797 91.4200213,31.7121384 C90.8481843,31.5684825 90.4527702,31.4437565 90.2324338,31.3382487 C90.0110403,31.2327408 89.8449952,31.0875475 89.7311275,30.9011311 C89.6167793,30.7156757 89.5597974,30.5093685 89.5597974,30.2843236 C89.5597974,30.080707 89.6063054,29.8911196 89.7002823,29.7161381 C89.7942592,29.5422135 89.9222523,29.3970202 90.0841655,29.2811345 C90.2041831,29.1918661 90.3698438,29.1160504 90.5781689,29.0544561 C90.7870705,28.9912283 91.0110584,28.9615362 91.2509013,28.9615362 C91.6112422,28.9615362 91.92815,29.0132331 92.2001834,29.1166269 C92.4733698,29.2200207 92.6739115,29.3615626 92.8034421,29.5391386 C92.9345101,29.7161381 93.0237785,29.9537709 93.071824,30.249923 L92.3103996,30.3537973 C92.275903,30.1172215 92.1762567,29.9333996 92.0101155,29.8002176 C91.844647,29.6670356 91.6100891,29.6012133 91.307691,29.6012133 C90.9500407,29.6012133 90.6941506,29.6607897 90.5410778,29.7787893 C90.3885815,29.8973655 90.3123814,30.0357364 90.3123814,30.1939981 C90.3123814,30.295278 90.3441875,30.38618 90.4074153,30.4661276 C90.4717001,30.5497267 90.5702894,30.6200652 90.7061619,30.6744527 C90.783419,30.7031839 91.0126919,30.7694866 91.3944611,30.8733608 C91.9448698,31.0197073 92.3292334,31.1407818 92.546495,31.2342783 C92.7648135,31.3277747 92.9345101,31.4646082 93.0587556,31.6432412 C93.1830972,31.8212976 93.2452681,32.0443246 93.2452681,32.3090551 C93.2452681,32.5696536 93.1695484,32.8135323 93.0181092,33.0422287 C92.8666699,33.2715016 92.6478709,33.4496541 92.3626731,33.5738997 C92.0769948,33.7002592 91.753745,33.76243 91.3944611,33.76243 C90.7969679,33.76243 90.3415931,33.6386649 90.0292976,33.3900778 C89.7159452,33.1425476 89.5164604,32.7754803 89.4297864,32.2877229" id="Fill-19" fill="#ED952D"></path>
            <path d="M94.7586998,30.9210219 L97.3239427,30.9210219 C97.2889656,30.5339678 97.1918177,30.2441576 97.0299045,30.0513992 C96.7818939,29.7516917 96.4601815,29.6012133 96.0659205,29.6012133 C95.7081741,29.6012133 95.40789,29.721327 95.1639152,29.9605933 C94.9201326,30.200244 94.7848366,30.5199385 94.7586998,30.9210219 Z M97.3155828,32.1795245 L98.1198636,32.2798434 C97.9939846,32.7493436 97.7578892,33.1138164 97.4148447,33.3739345 C97.0712236,33.6328995 96.6330491,33.76243 96.0998406,33.76243 C95.4271082,33.76243 94.8949567,33.5556424 94.5017527,33.1419711 C94.1079722,32.7283958 93.9110819,32.1477184 93.9110819,31.4013804 C93.9110819,30.6284251 94.1100862,30.0284335 94.5079987,29.6012133 C94.9054306,29.1745697 95.4224958,28.9615362 96.0564075,28.9615362 C96.6716776,28.9615362 97.1725034,29.1704378 97.5620559,29.5892981 C97.951128,30.0060443 98.1459043,30.5946011 98.1459043,31.3533349 C98.1459043,31.3998429 98.1449434,31.4682596 98.1422528,31.5606991 L94.7159394,31.5606991 C94.7445745,32.0656568 94.8871734,32.451654 95.1441205,32.7206124 C95.4000105,32.9890904 95.7200893,33.1226568 96.1039725,33.1226568 C96.3901312,33.1226568 96.6330491,33.0474176 96.8351282,32.8971314 C97.0372074,32.7472296 97.1965261,32.5080593 97.3155828,32.1795245 L97.3155828,32.1795245 Z" id="Fill-20" fill="#ED952D"></path>
            <polygon id="Fill-21" fill="#ED952D" points="98.794614 31.7554754 101.186893 31.7554754 101.186893 30.9731993 98.794614 30.9731993"></polygon>
            <path d="M102.566663,31.3664994 C102.566663,31.9544796 102.690428,32.3940955 102.938534,32.6855392 C103.187121,32.9770791 103.479046,33.1226568 103.816421,33.1226568 C104.15639,33.1226568 104.44572,32.983325 104.683353,32.7043731 C104.921466,32.4271508 105.041099,32.0025251 105.041099,31.4312646 C105.041099,30.8024458 104.918872,30.3413055 104.677588,30.0467869 C104.435342,29.7532292 104.136019,29.6048648 103.781444,29.6048648 C103.436285,29.6048648 103.147436,29.7474637 102.914992,30.0300671 C102.682644,30.3125743 102.566663,30.7586283 102.566663,31.3664994 Z M105.027551,33.6590362 L105.027551,33.0793198 C104.736107,33.5352711 104.308406,33.76243 103.743296,33.76243 C103.377189,33.76243 103.041448,33.6622072 102.733284,33.460128 C102.425697,33.2579528 102.188064,32.9760221 102.019905,32.6140476 C101.850689,32.2521693 101.76661,31.8359995 101.76661,31.3664994 C101.76661,30.908434 101.842906,30.4916878 101.994826,30.117798 C102.147802,29.7443888 102.378228,29.4586144 102.683125,29.2597063 C102.989174,29.060702 103.331258,28.9615362 103.708319,28.9615362 C103.985637,28.9615362 104.23163,29.019479 104.447738,29.1365177 C104.665096,29.2534603 104.840558,29.4048996 104.975854,29.5929495 L104.975854,27.3179973 L105.74977,27.3179973 L105.74977,33.6590362 L105.027551,33.6590362 L105.027551,33.6590362 Z" id="Fill-22" fill="#ED952D"></path>
            <path d="M106.965992,33.6590362 L106.965992,29.0654104 L107.666399,29.0654104 L107.666399,29.7615891 C107.844456,29.4357448 108.010501,29.2200207 108.162036,29.1166269 C108.313379,29.0132331 108.47952,28.9615362 108.661228,28.9615362 C108.923941,28.9615362 109.190209,29.0456157 109.461858,29.2122373 L109.19338,29.9344566 C109.002255,29.8216459 108.813725,29.7662975 108.62308,29.7662975 C108.451846,29.7662975 108.29935,29.8169374 108.163573,29.9187938 C108.028758,30.0217071 107.931706,30.1637295 107.873667,30.3454374 C107.78757,30.6222753 107.744713,30.9256343 107.744713,31.2541691 L107.744713,33.6590362 L106.965992,33.6590362" id="Fill-23" fill="#ED952D"></path>
            <path d="M109.928187,33.6590362 L110.706908,33.6590362 L110.706908,29.0654104 L109.928187,29.0654104 L109.928187,33.6590362 Z M109.928187,28.2136606 L110.706908,28.2136606 L110.706908,27.3179973 L109.928187,27.3179973 L109.928187,28.2136606 Z" id="Fill-24" fill="#ED952D"></path>
            <path d="M113.168757,33.6590362 L111.421247,29.0654104 L112.242825,29.0654104 L113.228717,31.8161087 C113.335282,32.1132218 113.433967,32.4218658 113.523332,32.7425212 C113.592229,32.4996994 113.68832,32.2077753 113.812566,31.8677095 L114.834012,29.0654104 L115.634161,29.0654104 L113.895204,33.6590362 L113.168757,33.6590362" id="Fill-25" fill="#ED952D"></path>
            <path d="M116.910536,30.9210219 L119.475299,30.9210219 C119.440802,30.5339678 119.343174,30.2441576 119.181261,30.0513992 C118.933154,29.7516917 118.611442,29.6012133 118.217085,29.6012133 C117.859434,29.6012133 117.55915,29.721327 117.314791,29.9605933 C117.070912,30.200244 116.936097,30.5199385 116.910536,30.9210219 Z M119.466843,32.1795245 L120.271124,32.2798434 C120.145341,32.7493436 119.909245,33.1138164 119.566105,33.3739345 C119.222484,33.6328995 118.784309,33.76243 118.251197,33.76243 C117.579041,33.76243 117.046889,33.5556424 116.654166,33.1419711 C116.259713,32.7283958 116.062438,32.1477184 116.062438,31.4013804 C116.062438,30.6284251 116.261346,30.0284335 116.659259,29.6012133 C117.057267,29.1745697 117.574332,28.9615362 118.20786,28.9615362 C118.823034,28.9615362 119.323763,29.1704378 119.713508,29.5892981 C120.102388,30.0060443 120.29726,30.5946011 120.29726,31.3533349 C120.29726,31.3998429 120.295627,31.4682596 120.293609,31.5606991 L116.867584,31.5606991 C116.896892,32.0656568 117.038433,32.451654 117.295861,32.7206124 C117.552328,32.9890904 117.872118,33.1226568 118.255905,33.1226568 C118.540911,33.1226568 118.784309,33.0474176 118.986484,32.8971314 C119.189044,32.7472296 119.348939,32.5080593 119.466843,32.1795245 L119.466843,32.1795245 Z" id="Fill-26" fill="#ED952D"></path>
            <path d="M121.248272,33.6590362 L121.248272,29.0654104 L121.949544,29.0654104 L121.949544,29.7182521 C122.286534,29.2137748 122.774292,28.9615362 123.411855,28.9615362 C123.688789,28.9615362 123.942469,29.0111191 124.174336,29.1108614 C124.40678,29.2101233 124.581185,29.3407109 124.695437,29.5020475 C124.810554,29.6639607 124.891943,29.8546051 124.937875,30.0781125 C124.967086,30.2216723 124.980731,30.4739109 124.980731,30.8348284 L124.980731,33.6590362 L124.203068,33.6590362 L124.203068,30.8650009 C124.203068,30.5474205 124.172318,30.3098838 124.111781,30.1532556 C124.051052,29.9955704 123.944103,29.8702679 123.789877,29.7772519 C123.635459,29.6826984 123.455192,29.6362865 123.24629,29.6362865 C122.915834,29.6362865 122.629002,29.7412178 122.388295,29.9521373 C122.147587,30.162192 122.026993,30.5616419 122.026993,31.1507753 L122.026993,33.6590362 L121.248272,33.6590362" id="Fill-27" fill="#ED952D"></path>
            <path d="M128.710019,33.6590362 L128.710019,27.3179973 L129.973326,27.3179973 L131.474747,31.8077488 C131.612157,32.2260325 131.713341,32.5389045 131.777241,32.7461726 C131.849213,32.5147857 131.962024,32.1769301 132.114904,31.7288582 L133.63266,27.3179973 L134.761728,27.3179973 L134.761728,33.6590362 L133.952739,33.6590362 L133.952739,28.3515511 L132.110292,33.6590362 L131.353576,33.6590362 L129.519009,28.2607452 L129.519009,33.6590362 L128.710019,33.6590362" id="Fill-28" fill="#ED952D"></path>
            <path d="M138.949082,31.3533349 C138.665902,31.4682596 138.242429,31.5670411 137.676838,31.6473731 C137.357817,31.6938811 137.131138,31.7450975 136.998052,31.8036169 C136.865927,31.8605027 136.763494,31.9450627 136.69085,32.0558555 C136.619838,32.1671288 136.583228,32.2907017 136.583228,32.4265743 C136.583228,32.634515 136.662118,32.805749 136.818747,32.9446964 C136.976047,33.0835478 137.206377,33.1525411 137.508679,33.1525411 C137.809059,33.1525411 138.074847,33.0872953 138.309309,32.9561312 C138.542233,32.8244867 138.71462,32.6453732 138.82474,32.4171573 C138.907282,32.2412149 138.949082,31.9821538 138.949082,31.6391093 L138.949082,31.3533349 Z M139.013751,33.0919077 C138.725959,33.3373239 138.44816,33.510768 138.181316,33.6114712 C137.915048,33.7128471 137.628312,33.76243 137.322263,33.76243 C136.818747,33.76243 136.430251,33.6391454 136.159275,33.3922879 C135.888202,33.1457186 135.753002,32.8307326 135.753002,32.4480025 C135.753002,32.2223811 135.804123,32.0176114 135.905883,31.831195 C136.008796,31.6458356 136.142459,31.4968947 136.308119,31.3836996 C136.474165,31.2708889 136.660581,31.1862328 136.869002,31.12829 C137.021498,31.0880279 137.252309,31.0493994 137.560857,31.0118278 C138.189195,30.9365887 138.651777,30.8474163 138.949082,30.7434459 C138.951772,30.6363046 138.952637,30.5694253 138.952637,30.5407902 C138.952637,30.2227293 138.879993,29.9992219 138.733262,29.8692109 C138.533393,29.6942293 138.238297,29.6048648 137.846631,29.6048648 C137.479948,29.6048648 137.209452,29.6696301 137.035047,29.7986801 C136.860642,29.9276341 136.732073,30.1538321 136.647993,30.4795803 L135.887145,30.375706 C135.955562,30.0498618 136.069334,29.7877258 136.228268,29.5866075 C136.387394,29.3866423 136.616187,29.2315516 136.916471,29.1228728 C137.216275,29.016308 137.563547,28.9615362 137.958961,28.9615362 C138.350628,28.9615362 138.670226,29.0069872 138.915162,29.0999071 C139.160098,29.1918661 139.339115,29.3077517 139.455673,29.4482366 C139.570982,29.5887215 139.65141,29.7641835 139.697822,29.9777936 C139.723575,30.1104951 139.736066,30.3496654 139.736066,30.6957849 L139.736066,31.7334705 C139.736066,32.4574194 139.752786,32.9153887 139.785553,33.1081471 C139.819666,33.2981188 139.885392,33.4825172 139.982636,33.6590362 L139.169899,33.6590362 C139.088414,33.4972191 139.037197,33.3086888 139.013751,33.0919077 L139.013751,33.0919077 Z" id="Fill-29" fill="#ED952D"></path>
            <path d="M140.934032,33.6590362 L140.934032,29.0654104 L141.634919,29.0654104 L141.634919,29.7615891 C141.813071,29.4357448 141.978636,29.2200207 142.129979,29.1166269 C142.280938,29.0132331 142.44804,28.9615362 142.628114,28.9615362 C142.89198,28.9615362 143.158921,29.0456157 143.429224,29.2122373 L143.161419,29.9344566 C142.970871,29.8216459 142.781283,29.7662975 142.591119,29.7662975 C142.420846,29.7662975 142.26787,29.8169374 142.132093,29.9187938 C141.996797,30.0217071 141.90013,30.1637295 141.842187,30.3454374 C141.755609,30.6222753 141.712272,30.9256343 141.712272,31.2541691 L141.712272,33.6590362 L140.934032,33.6590362" id="Fill-30" fill="#ED952D"></path>
            <polyline id="Fill-31" fill="#ED952D" points="143.897187 33.6590362 143.897187 27.3179973 144.6761 27.3179973 144.6761 30.9335138 146.518163 29.0654104 147.527117 29.0654104 145.769614 30.7694866 147.703924 33.6590362 146.744937 33.6590362 145.223818 31.3099979 144.6761 31.8379214 144.6761 33.6590362 143.897187 33.6590362"></polyline>
            <path d="M148.910826,30.9210219 L151.475492,30.9210219 C151.4409,30.5339678 151.342887,30.2441576 151.180493,30.0513992 C150.93354,29.7516917 150.612596,29.6012133 150.217663,29.6012133 C149.859243,29.6012133 149.558479,29.721327 149.31633,29.9605933 C149.070337,30.200244 148.936771,30.5199385 148.910826,30.9210219 Z M151.467805,32.1795245 L152.271125,32.2798434 C152.145246,32.7493436 151.909823,33.1138164 151.566779,33.3739345 C151.223734,33.6328995 150.78556,33.76243 150.251294,33.76243 C149.58058,33.76243 149.047275,33.5556424 148.654263,33.1419711 C148.25933,32.7283958 148.062343,32.1477184 148.062343,31.4013804 C148.062343,30.6284251 148.262213,30.0284335 148.660029,29.6012133 C149.057845,29.1745697 149.573853,28.9615362 150.207093,28.9615362 C150.823035,28.9615362 151.32463,29.1704378 151.713798,29.5892981 C152.102005,30.0060443 152.29707,30.5946011 152.29707,31.3533349 C152.29707,31.3998429 152.296109,31.4682596 152.293226,31.5606991 L148.867585,31.5606991 C148.896413,32.0656568 149.038627,32.451654 149.296151,32.7206124 C149.551753,32.9890904 149.870774,33.1226568 150.255138,33.1226568 C150.541489,33.1226568 150.78556,33.0474176 150.98639,32.8971314 C151.189142,32.7472296 151.348652,32.5080593 151.467805,32.1795245 L151.467805,32.1795245 Z" id="Fill-32" fill="#ED952D"></path>
            <g id="Group-36" transform="translate(152.739088, 27.444453)">
                <mask id="mask-4" fill="white">
                    <use xlink:href="#path-3"></use>
                </mask>
                <g id="Clip-34"></g>
                <path d="M2.21009085,5.5179242 L2.32251721,6.20679991 C2.10342994,6.25273136 1.90740449,6.27521664 1.73540177,6.27521664 C1.45193359,6.27521664 1.23188542,6.23024609 1.07717906,6.14107373 C0.920550883,6.05170919 0.811007249,5.93361347 0.74854816,5.78842011 C0.685128162,5.64284238 0.653418163,5.3362163 0.653418163,4.86825359 L0.653418163,2.22575366 L0.0826381794,2.22575366 L0.0826381794,1.6209575 L0.653418163,1.6209575 L0.653418163,0.483048986 L1.42694996,0.0156628177 L1.42694996,1.6209575 L2.21009085,1.6209575 L2.21009085,2.22575366 L1.42694996,2.22575366 L1.42694996,4.91216713 C1.42694996,5.13461758 1.44040269,5.27712039 1.46826905,5.34140521 C1.49613541,5.40463303 1.53937632,5.45411984 1.60279632,5.49178748 C1.6642945,5.52993557 1.75269813,5.54828893 1.86800722,5.54828893 C1.95448903,5.54828893 2.06979812,5.53829548 2.21009085,5.5179242" id="Fill-33" fill="#ED952D" mask="url(#mask-4)"></path>
                <path d="M3.67643808,3.94395516 C3.67643808,4.53395332 3.7955908,4.97116695 4.03581807,5.25415467 C4.27508442,5.53723848 4.56431805,5.67820384 4.90447986,5.67820384 C5.25040712,5.67820384 5.54732802,5.53156911 5.79332074,5.23849185 C6.04027437,4.94608722 6.16327073,4.49330687 6.16327073,3.87918989 C6.16327073,3.29322754 6.0431571,2.85457255 5.80196892,2.56360929 C5.56174166,2.27226166 5.27346894,2.1270683 4.94003349,2.1270683 C4.60851987,2.1270683 4.31448169,2.28167857 4.05887988,2.59128347 C3.80519989,2.90146492 3.67643808,3.35165081 3.67643808,3.94395516 Z M2.97209173,7.97554522 L2.97209173,1.6209575 L3.68124262,1.6209575 L3.68124262,2.2179703 C3.8484408,1.98389285 4.03773988,1.8090074 4.24721806,1.69206477 C4.45765714,1.57502605 4.71325895,1.51708323 5.01306258,1.51708323 C5.40607439,1.51708323 5.75104074,1.61836304 6.05084437,1.81996177 C6.35160891,2.02098394 6.57742254,2.30666221 6.73116799,2.6733451 C6.88395253,3.04204591 6.95986434,3.44466681 6.95986434,3.8833218 C6.95986434,4.35339851 6.87530435,4.77591023 6.70618435,5.15287485 C6.53802527,5.52945511 6.29299345,5.81763174 5.97108892,6.01769301 C5.65014529,6.21871518 5.3119053,6.31797709 4.95636895,6.31797709 C4.69788441,6.31797709 4.46438351,6.26358964 4.25778806,6.15462255 C4.05215352,6.04440628 3.88207262,5.90593928 3.75042807,5.73826065 L3.75042807,7.97554522 L2.97209173,7.97554522 L2.97209173,7.97554522 Z" id="Fill-35" fill="#ED952D" mask="url(#mask-4)"></path>
            </g>
            <polygon id="Fill-37" fill="#ED952D" points="160.619503 33.6590362 161.399761 33.6590362 161.399761 27.3179973 160.619503 27.3179973"></polygon>
            <path d="M165.537436,31.3533349 C165.255889,31.4682596 164.831168,31.5670411 164.267114,31.6473731 C163.94617,31.6938811 163.720357,31.7450975 163.587751,31.8036169 C163.454185,31.8605027 163.352328,31.9450627 163.279299,32.0558555 C163.208192,32.1671288 163.171678,32.2907017 163.171678,32.4265743 C163.171678,32.634515 163.250472,32.805749 163.408061,32.9446964 C163.56565,33.0835478 163.795308,33.1525411 164.097994,33.1525411 C164.397798,33.1525411 164.66493,33.0872953 164.898431,32.9561312 C165.130971,32.8244867 165.303935,32.6453732 165.412518,32.4171573 C165.496117,32.2412149 165.537436,31.9821538 165.537436,31.6391093 L165.537436,31.3533349 Z M165.602778,33.0919077 C165.314505,33.3373239 165.036802,33.510768 164.77063,33.6114712 C164.503498,33.7128471 164.217147,33.76243 163.911578,33.76243 C163.408061,33.76243 163.018893,33.6391454 162.748878,33.3922879 C162.475979,33.1457186 162.341452,32.8307326 162.341452,32.4480025 C162.341452,32.2223811 162.39238,32.0176114 162.495198,31.831195 C162.598015,31.6458356 162.732542,31.4968947 162.896858,31.3836996 C163.063095,31.2708889 163.250472,31.1862328 163.458028,31.12829 C163.610813,31.0880279 163.841431,31.0493994 164.149883,31.0118278 C164.779278,30.9365887 165.240515,30.8474163 165.537436,30.7434459 C165.541279,30.6363046 165.543201,30.5694253 165.543201,30.5407902 C165.543201,30.2227293 165.469211,29.9992219 165.323153,29.8692109 C165.123284,29.6942293 164.827324,29.6048648 164.435273,29.6048648 C164.070128,29.6048648 163.79819,29.6696301 163.624266,29.7986801 C163.44938,29.9276341 163.320618,30.1538321 163.237019,30.4795803 L162.475019,30.375706 C162.545165,30.0498618 162.659513,29.7877258 162.817102,29.5866075 C162.975652,29.3866423 163.205309,29.2315516 163.505113,29.1228728 C163.804917,29.016308 164.151805,28.9615362 164.547699,28.9615362 C164.93975,28.9615362 165.258772,29.0069872 165.503804,29.0999071 C165.748836,29.1918661 165.929487,29.3077517 166.043835,29.4482366 C166.160105,29.5887215 166.23986,29.7641835 166.285984,29.9777936 C166.311928,30.1104951 166.325381,30.3496654 166.325381,30.6957849 L166.325381,31.7334705 C166.325381,32.4574194 166.341717,32.9153887 166.375348,33.1081471 C166.408019,33.2981188 166.474322,33.4825172 166.572335,33.6590362 L165.758445,33.6590362 C165.677728,33.4972191 165.625839,33.3086888 165.602778,33.0919077 L165.602778,33.0919077 Z" id="Fill-38" fill="#ED952D"></path>
            <path d="M170.530319,31.9759079 L171.296164,32.0762268 C171.212565,32.6030933 170.998282,33.0166685 170.653316,33.3148386 C170.30931,33.6136813 169.884588,33.76243 169.383955,33.76243 C168.75552,33.76243 168.249121,33.5577564 167.86764,33.1457186 C167.485198,32.7352182 167.294938,32.146181 167.294938,31.3789912 C167.294938,30.8828738 167.376616,30.4498882 167.53997,30.0781125 C167.705247,29.7051837 167.956044,29.4263279 168.292362,29.2408724 C168.627719,29.0544561 168.992865,28.9615362 169.387798,28.9615362 C169.88651,28.9615362 170.294896,29.0868387 170.611996,29.3402304 C170.929096,29.592373 171.132809,29.950696 171.222174,30.4153916 L170.464977,30.5308929 C170.39387,30.2227293 170.265108,29.990862 170.081575,29.8351947 C169.899963,29.679047 169.677993,29.6012133 169.418547,29.6012133 C169.026497,29.6012133 168.707475,29.7422748 168.462443,30.0232446 C168.217411,30.3041183 168.095376,30.7486348 168.095376,31.3575629 C168.095376,31.9748509 168.212607,32.4234033 168.44899,32.7023552 C168.686335,32.9827484 168.994787,33.1226568 169.375306,33.1226568 C169.680876,33.1226568 169.935516,33.0292564 170.142112,32.8413026 C170.345825,32.6532527 170.475547,32.36498 170.530319,31.9759079" id="Fill-39" fill="#ED952D"></path>
            <path d="M172.55015,30.9210219 L175.114816,30.9210219 C175.079263,30.5339678 174.982211,30.2441576 174.820778,30.0513992 C174.571903,29.7516917 174.25192,29.6012133 173.856986,29.6012133 C173.498567,29.6012133 173.197803,29.721327 172.954693,29.9605933 C172.710622,30.200244 172.576095,30.5199385 172.55015,30.9210219 Z M175.107129,32.1795245 L175.91141,32.2798434 C175.78457,32.7493436 175.549147,33.1138164 175.206103,33.3739345 C174.862097,33.6328995 174.423923,33.76243 173.891579,33.76243 C173.219904,33.76243 172.686599,33.5556424 172.293587,33.1419711 C171.899615,32.7283958 171.702628,32.1477184 171.702628,31.4013804 C171.702628,30.6284251 171.900576,30.0284335 172.298392,29.6012133 C172.697169,29.1745697 173.213177,28.9615362 173.847377,28.9615362 C174.462359,28.9615362 174.963954,29.1704378 175.353122,29.5892981 C175.741329,30.0060443 175.937354,30.5946011 175.937354,31.3533349 C175.937354,31.3998429 175.935433,31.4682596 175.93255,31.5606991 L172.506909,31.5606991 C172.536697,32.0656568 172.677951,32.451654 172.935475,32.7206124 C173.192037,32.9890904 173.511059,33.1226568 173.894462,33.1226568 C174.180813,33.1226568 174.423923,33.0474176 174.626675,32.8971314 C174.828465,32.7472296 174.987976,32.5080593 175.107129,32.1795245 L175.107129,32.1795245 Z" id="Fill-40" fill="#ED952D"></path>
            <g id="Group-45" transform="translate(0.563597, 1.000000)">
                <path d="M41.2507985,12.5619749 C41.0816681,23.7531382 32.1502609,32.7895484 21.0888789,32.9605475 C21.2580093,21.7693841 30.1888361,12.7330914 41.2507985,12.5619749" id="Fill-42" fill="#ED952D"></path>
                <path d="M20.770352,24.5204027 C23.6548549,17.4429658 29.9427439,12.2103462 37.6250008,10.8571514 C38.3644383,7.98034977 37.6276706,4.79525653 35.399259,2.54208493 C32.0531009,-0.844073198 26.6274635,-0.844073198 23.2813055,2.54208493 L20.770352,5.08123374 L18.2593986,2.54208493 C14.9132405,-0.844073198 9.48829956,-0.844073198 6.14074857,2.54208493 C3.91314945,4.79596119 3.1768461,7.98034977 3.91570323,10.8571514 C11.5979601,12.2103462 17.8859652,17.4429658 20.770352,24.5204027" id="Fill-44" fill="#AD252A"></path>
                <path d="M0.289905495,12.5619749 C0.459035872,23.7531382 9.39044307,32.7895484 20.451709,32.9605475 C20.2826947,21.7693841 11.3518679,12.7330914 0.289905495,12.5619749" id="Fill-41" fill="#ED952D"></path>
            </g>
        </g>
    </g>
</svg>
