<svg viewBox="0 0 128 103" version="1.1" xmlns="http://www.w3.org/2000/svg" xmlns:xlink="http://www.w3.org/1999/xlink" x="0px" y="0px">
    <g id="Page-1" stroke="none" stroke-width="1" fill="none" fill-rule="evenodd" opacity="0.2">
        <g id="mark" fill-rule="nonzero">
            <path d="M127.419586,38.8900419 C126.895983,73.536251 99.2456489,101.511659 65.0012238,102.041047 C65.5248268,67.3948377 93.1733639,39.4197936 127.419586,38.8900419" id="Fill-42" fill="#ED952D"></path>
            <path d="M64.015111,75.91159 C72.9451112,54.0008777 92.4114983,37.8014507 116.194645,33.612157 C118.483836,24.7059988 116.20291,14.8454147 109.304073,7.86992413 C98.9448558,-2.6131275 82.1478738,-2.6131275 71.7886567,7.86992413 L64.015111,15.7307585 L56.2415655,7.86992413 C45.8823482,-2.6131275 29.0875225,-2.6131275 18.7239928,7.86992413 C11.8276708,14.8475963 9.54818308,24.7059988 11.835577,33.612157 C35.6187236,37.8014507 55.0854702,54.0008777 64.015111,75.91159" id="Fill-44" fill="#AD252A"></path>
            <path d="M0.610636086,38.8900419 C1.13423906,73.536251 28.7845729,101.511659 63.0286387,102.041047 C62.5053951,67.3948377 34.8568581,39.4197936 0.610636086,38.8900419" id="Fill-41" fill="#ED952D"></path>
        </g>
    </g>
</svg>