<svg viewBox="0 0 42 33" version="1.1" xmlns="http://www.w3.org/2000/svg" xmlns:xlink="http://www.w3.org/1999/xlink" x="0px" y="0px">
    <g id="Page-1" stroke="none" stroke-width="1" fill="none" fill-rule="evenodd" opacity="0.6">
        <g id="mark" fill-rule="nonzero">
            <g id="Page-1" opacity="0.7">
                <g id="mark">
                    <path d="M41.8143955,12.5619749 C41.6452651,23.7531382 32.7138579,32.7895484 21.6524759,32.9605475 C21.8216063,21.7693841 30.7524331,12.7330914 41.8143955,12.5619749" id="Fill-42" fill="#ED952D"></path>
                    <path d="M21.333949,24.5204027 C24.2184519,17.4429658 30.5063409,12.2103462 38.1885978,10.8571514 C38.9280353,7.98034977 38.1912676,4.79525653 35.962856,2.54208493 C32.6166979,-0.844073198 27.1910605,-0.844073198 23.8449025,2.54208493 L21.333949,5.08123374 L18.8229956,2.54208493 C15.4768375,-0.844073198 10.0518966,-0.844073198 6.70434557,2.54208493 C4.47674645,4.79596119 3.7404431,7.98034977 4.47930023,10.8571514 C12.1615571,12.2103462 18.4495622,17.4429658 21.333949,24.5204027" id="Fill-44" fill="#AD252A"></path>
                    <path d="M0.853502495,12.5619749 C1.02263287,23.7531382 9.95404007,32.7895484 21.015306,32.9605475 C20.8462917,21.7693841 11.9154649,12.7330914 0.853502495,12.5619749" id="Fill-41" fill="#ED952D"></path>
                </g>
            </g>
        </g>
    </g>
</svg>