<svg viewBox="0 0 128 102" version="1.1" xmlns="http://www.w3.org/2000/svg" xmlns:xlink="http://www.w3.org/1999/xlink" x="0px" y="0px">
    <g id="Page-1" stroke="none" stroke-width="1" fill="none" fill-rule="evenodd">
        <g id="mark">
            <path d="M127.689401,38.6751638 C127.162576,73.1299435 99.3421017,100.95078 64.8869605,101.477243 C65.4137853,67.0224633 93.232452,39.2019887 127.689401,38.6751638" id="Fill-42" fill="#ED952D"></path>
            <path d="M63.8947797,75.4921582 C72.8797288,53.7025085 92.4658983,37.5925876 116.39539,33.4264407 C118.698667,24.5694915 116.403706,14.7633898 109.462418,7.82644068 C99.0394576,-2.59868927 82.1391186,-2.59868927 71.7161582,7.82644068 L63.8947797,15.6438418 L56.0734011,7.82644068 C45.6504407,-2.59868927 28.7522712,-2.59868927 18.3249718,7.82644068 C11.3862147,14.7655593 9.09270056,24.5694915 11.3941695,33.4264407 C35.323661,37.5925876 54.9101921,53.7025085 63.8947797,75.4921582" id="Fill-44" fill="#AD252A"></path>
            <path d="M0.100158192,38.6751638 C0.626983051,73.1299435 28.4474576,100.95078 62.9022373,101.477243 C62.375774,67.0224633 34.5571073,39.2019887 0.100158192,38.6751638" id="Fill-41" fill="#ED952D"></path>
        </g>
    </g>
</svg>