<svg viewBox="0 0 128 64" version="1.1" xmlns="http://www.w3.org/2000/svg" xmlns:xlink="http://www.w3.org/1999/xlink" x="0px" y="0px">
    <defs>
        <polygon id="path-1" points="6.9529458 6.52841618 0.00557327257 6.52841618 0.00557327257 0.0757196342 6.9529458 0.0757196342 6.9529458 6.52841618"></polygon>
        <polygon id="path-3" points="6.95986434 7.96977977 0.0826381794 7.96977977 0.0826381794 0.0156628177 6.95986434 0.0156628177 6.95986434 7.96977977"></polygon>
    </defs>
    <g id="Page-1" stroke="none" stroke-width="1" fill="none" fill-rule="evenodd">
        <g id="Converted-EPS">
            <path d="M4.67193987,47.8875758 L10.3481258,47.8875758 C11.608358,47.8875758 12.5770505,47.6411026 13.2528578,47.1445048 C13.8836946,46.6942228 14.1996415,45.9276096 14.1996415,44.8465869 C14.1996415,43.7655642 13.8836946,42.9780992 13.2528578,42.4818858 C12.6668955,42.0322764 11.6761982,41.8061745 10.2798052,41.8061745 L4.67193987,41.8061745 L4.67193987,47.8875758 Z M4.67193987,37.8193628 L10.1449896,37.8193628 C11.3158573,37.8193628 12.1723156,37.6167071 12.7128269,37.2114917 C13.2528578,36.8056998 13.5233537,36.175824 13.5233537,35.3188853 C13.5233537,34.464541 13.2528578,33.8331277 12.7128269,33.4273358 C12.2621606,33.0674753 11.383217,32.8862479 10.0771494,32.8862479 L4.67193987,32.8862479 L4.67193987,37.8193628 Z M0.0766805432,52.0775237 L0.0766805432,31.2647138 C0.0766805432,30.5890026 0.313352445,30.0149555 0.785447068,29.5419 C1.25859869,29.0681718 1.83351058,28.8320764 2.50931793,28.8320764 L11.0234527,28.8320764 C13.4106391,28.8320764 15.2353093,29.3287703 16.4969829,30.3189871 C17.7576956,31.4004903 18.3891089,32.8643391 18.3891089,34.7114946 C18.3891089,35.8834193 18.1405217,36.8736361 17.6459419,37.6840668 C17.1487675,38.4507762 16.4515319,39.0586472 15.5506796,39.5082566 C16.7215473,40.0049505 17.6224957,40.7025705 18.2538129,41.6035188 C18.8387183,42.459977 19.1321799,43.5858742 19.1321799,44.9818829 C19.1321799,47.2348303 18.4110177,48.9921408 16.9701345,50.2528535 C15.4833199,51.4696526 13.3886342,52.0775237 10.6860775,52.0775237 L0.0766805432,52.0775237 L0.0766805432,52.0775237 Z" id="Fill-1" fill="#50351E"></path>
            <path d="M31.3871336,43.0229737 C30.7557203,43.3378636 29.8773533,43.6308447 28.7524171,43.9008602 L27.1982428,44.2387158 C26.386659,44.4648177 25.8011771,44.7573184 25.4414127,45.1176593 C25.1254658,45.6132001 24.9676846,46.1094136 24.9676846,46.6034169 C24.9676846,47.2797047 25.1709168,47.8202161 25.5766126,48.2255275 C25.9813475,48.5868293 26.5668294,48.7660389 27.3334427,48.7660389 C28.5936749,48.7660389 29.5853331,48.4066589 30.3061109,47.6844396 C31.0267927,46.9652953 31.3871336,45.9736371 31.3871336,44.7118674 L31.3871336,43.0229737 Z M32.4681563,51.3338762 C31.5229101,51.830474 30.5202015,52.132872 29.4616641,52.2456828 C28.4030305,52.358013 27.4681621,52.4153793 26.657251,52.4153793 C25.0356208,52.4153793 23.6166464,51.9756673 22.4004238,51.0973003 C21.1836247,50.2189334 20.576234,48.7660389 20.576234,46.7387129 C20.576234,44.8465869 21.1272193,43.4955487 22.2316882,42.6850219 C23.3341391,41.8740147 24.7426396,41.3335034 26.4550757,41.062527 C26.6801206,41.062527 26.9495595,41.0285108 27.2656025,40.9617276 C27.5804924,40.8942718 27.9414098,40.837386 28.3466252,40.792992 C30.3285001,40.5224961 31.3196778,39.9370142 31.3196778,39.036162 C31.3196778,38.3603546 30.9703874,37.9206426 30.2726713,37.718083 C29.5734178,37.5148507 28.9315305,37.4140514 28.3466252,37.4140514 C27.7152118,37.4140514 27.1523113,37.5049534 26.657251,37.6840668 C26.161518,37.8642373 25.8011771,38.202189 25.5766126,38.6983063 L21.0483287,38.6983063 C21.2284991,37.3018172 21.8593359,36.1528582 22.9409352,35.252006 C24.1572538,34.2153773 25.8905416,33.6973512 28.143489,33.6973512 C30.6664518,33.6973512 32.5584818,34.1265893 33.8196749,34.9810296 C35.1263191,35.8834193 35.7797372,37.1435555 35.7797372,38.7650895 L35.7797372,44.9145232 C35.7797372,46.7167081 35.4516829,48.1236712 34.7999944,49.1378146 C34.1465762,50.1520541 33.3690086,50.8841707 32.4681563,51.3338762 L32.4681563,51.3338762 Z" id="Fill-2" fill="#50351E"></path>
            <path d="M42.2946046,34.1031431 L42.2946046,40.7250557 L48.0382463,34.1031431 L53.7149127,34.1031431 L47.2949832,40.9950712 L53.781792,52.0775237 L48.1060865,52.0775237 L44.7950822,45.9960263 C44.1193709,44.7798037 43.532832,44.2617776 43.0377717,44.4419481 C42.5410778,44.6221185 42.2946046,44.8925183 42.2946046,45.2523788 L42.2946046,52.0775237 L37.5641454,52.0775237 L37.5641454,28.8320764 L39.9972632,28.8320764 C40.627043,28.8320764 41.1681309,29.0576979 41.6187973,29.5079799 C42.0689831,29.9586462 42.2946046,30.4771528 42.2946046,31.0626346 L42.2946046,34.1031431" id="Fill-3" fill="#50351E"></path>
            <path d="M57.8793004,41.2650866 L64.7717089,41.2650866 C64.680903,40.0493445 64.3665897,39.1489727 63.8255018,38.5625299 C63.2400199,37.932654 62.4066235,37.6167071 61.3259851,37.6167071 C60.334327,37.6167071 59.5238002,37.932654 58.8923868,38.5625299 C58.26155,39.1944237 57.9236944,40.0946994 57.8793004,41.2650866 Z M65.9875472,46.5365377 L69.3669683,46.5365377 C68.870947,48.4286637 67.9245477,49.8700273 66.5286351,50.8607245 C65.1321459,51.8978337 63.3748354,52.4153793 61.258145,52.4153793 C58.6903077,52.4153793 56.685467,51.5818868 55.2440073,49.9149017 C53.8021633,48.2933677 53.0819619,45.9736371 53.0819619,42.9550374 C53.0819619,40.0727907 53.779678,37.8193628 55.1766476,36.1978288 C56.6175307,34.5313242 58.6229479,33.6973512 61.1902087,33.6973512 C63.893342,33.6973512 65.9875472,34.5083585 67.4748422,36.1299886 C68.9157254,37.7974541 69.6369837,40.1167042 69.6369837,43.0903334 L69.6369837,43.5630046 L69.6369837,43.8335005 C69.6369837,44.0596024 69.614018,44.2168071 69.569624,44.3060755 L57.8793004,44.3060755 C57.9236944,45.7025647 58.26155,46.7387129 58.8923868,47.4144242 C59.4778687,48.1356825 60.3562357,48.495543 61.5281604,48.495543 C62.2937167,48.495543 62.9476153,48.3382421 63.4881266,48.0222952 C63.6234226,47.9784778 63.7466112,47.8991067 63.8599023,47.7858155 C63.9717522,47.6745423 64.0964781,47.5502967 64.2312937,47.4144242 C64.2756877,47.2797047 64.4448077,47.1001108 64.7384615,46.8743933 C65.0302896,46.6493484 65.4475163,46.5365377 65.9875472,46.5365377 L65.9875472,46.5365377 Z" id="Fill-4" fill="#50351E"></path>
            <path d="M70.9953248,46.1313223 L75.590488,46.1313223 C75.6337289,47.032655 75.9717767,47.7084623 76.6036705,48.1580717 C77.2798622,48.6088341 78.180234,48.8333986 79.3061312,48.8333986 C80.1173306,48.8333986 80.815431,48.6761939 81.4014895,48.3608235 C81.9415204,48.046318 82.2124967,47.6175604 82.2124967,47.0765685 C82.2124967,46.2655613 81.2661935,45.6581707 79.374644,45.2523788 C78.5630602,45.1176593 77.9557657,44.9818829 77.5499738,44.8465869 C75.1617304,44.2617776 73.5626816,43.5630046 72.7526353,42.7524778 C71.8501495,41.9413744 71.4006362,40.8603517 71.4006362,39.5082566 C71.4006362,37.7974541 72.0528052,36.3779992 73.3600259,35.252006 C74.7116406,34.2153773 76.4684706,33.6973512 78.6309965,33.6973512 C80.9727318,33.6973512 82.8423726,34.2153773 84.2398227,35.252006 C85.5454098,36.3779992 86.2431259,37.842809 86.3345083,39.6435526 L83.428335,39.6435526 C82.5717806,39.6435526 81.918939,39.2622639 81.4694257,38.4956506 C81.2886787,38.3154802 81.1079317,38.1353097 80.9283378,37.9545627 C80.3878265,37.5488669 79.644179,37.3462112 78.6988366,37.3462112 C77.7964469,37.3462112 77.1212161,37.4815072 76.6709342,37.7520031 C76.2658149,38.022499 76.0630631,38.4267534 76.0630631,38.9677452 C76.0630631,39.6895801 77.2340269,40.2973551 79.5768192,40.792992 C79.8467386,40.883894 80.083891,40.9512537 80.2859701,40.9950712 C80.4896829,41.0405222 80.6796546,41.062527 80.8604977,41.062527 C83.1583195,41.6489698 84.7564074,42.3242006 85.6582205,43.0903334 C86.5136218,43.9008602 86.9418029,44.9818829 86.9418029,46.333978 C86.9418029,48.3163334 86.2211211,49.8470616 84.7798536,50.9285647 C83.428335,51.9198385 81.4014895,52.4153793 78.6988366,52.4153793 C76.1309993,52.4153793 74.2154271,51.8978337 72.9551949,50.8607245 C71.6471094,49.8251528 70.9953248,48.3163334 70.9953248,46.333978 L70.9953248,46.1313223" id="Fill-5" fill="#50351E"></path>
            <path d="M99.0284053,43.0229737 C98.3961272,43.3378636 97.5178563,43.6308447 96.3926318,43.9008602 L94.8387457,44.2387158 C94.0275463,44.4648177 93.4417761,44.7573184 93.0819157,45.1176593 C92.7657766,45.6132001 92.6087641,46.1094136 92.6087641,46.6034169 C92.6087641,47.2797047 92.8113237,47.8202161 93.2171156,48.2255275 C93.622427,48.5868293 94.2072363,48.7660389 94.9739456,48.7660389 C96.2340818,48.7660389 97.2257399,48.4066589 97.9464217,47.6844396 C98.6671035,46.9652953 99.0284053,45.9736371 99.0284053,44.7118674 L99.0284053,43.0229737 Z M100.109428,51.3338762 C99.1629326,51.830474 98.1597435,52.132872 97.1017827,52.2456828 C96.0434374,52.358013 95.1091455,52.4153793 94.2976578,52.4153793 C92.6766042,52.4153793 91.2576298,51.9756673 90.0408307,51.0973003 C88.8246081,50.2189334 88.2161605,48.7660389 88.2161605,46.7387129 C88.2161605,44.8465869 88.7676262,43.4955487 89.8726716,42.6850219 C90.9752186,41.8740147 92.3831426,41.3335034 94.0954826,41.062527 C94.3206235,41.062527 94.590639,41.0285108 94.9061054,40.9617276 C95.2213797,40.8942718 95.5818167,40.837386 95.9871281,40.792992 C97.9685226,40.5224961 98.9611417,39.9370142 98.9611417,39.036162 C98.9611417,38.3603546 98.6104099,37.9206426 97.9127899,37.718083 C97.214209,37.5148507 96.5723218,37.4140514 95.9871281,37.4140514 C95.3556187,37.4140514 94.7931986,37.5049534 94.2976578,37.6840668 C93.8020209,37.8642373 93.4417761,38.202189 93.2171156,38.6983063 L88.6894082,38.6983063 C88.8690021,37.3018172 89.5003193,36.1528582 90.5819186,35.252006 C91.7982373,34.2153773 93.531525,33.6973512 95.7844724,33.6973512 C98.3067626,33.6973512 100.198793,34.1265893 101.460466,34.9810296 C102.766342,35.8834193 103.41976,37.1435555 103.41976,38.7650895 L103.41976,44.9145232 C103.41976,46.7167081 103.093051,48.1236712 102.440593,49.1378146 C101.786214,50.1520541 101.0098,50.8841707 100.109428,51.3338762 L100.109428,51.3338762 Z" id="Fill-6" fill="#50351E"></path>
            <path d="M105.148435,28.8320764 L107.581457,28.8320764 C108.211813,28.8320764 108.752805,29.0462631 109.203471,29.4745402 C109.653177,29.9032979 109.87899,30.4317978 109.87899,31.0626346 L109.87899,52.0775237 L105.148435,52.0775237 L105.148435,28.8320764" id="Fill-7" fill="#50351E"></path>
            <path d="M116.102798,41.2650866 L122.995399,41.2650866 C122.904113,40.0493445 122.589896,39.1489727 122.048904,38.5625299 C121.46371,37.932654 120.630602,37.6167071 119.548618,37.6167071 C118.557921,37.6167071 117.746914,37.932654 117.115597,38.5625299 C116.48524,39.1944237 116.147,40.0946994 116.102798,41.2650866 Z M124.210949,46.5365377 L127.589505,46.5365377 C127.093676,48.4286637 126.148142,49.8700273 124.751941,50.8607245 C123.354779,51.8978337 121.597276,52.4153793 119.481355,52.4153793 C116.912845,52.4153793 114.909349,51.5818868 113.467025,49.9149017 C112.0247,48.2933677 111.30498,45.9736371 111.30498,42.9550374 C111.30498,40.0727907 112.001639,37.8193628 113.399761,36.1978288 C114.840164,34.5313242 116.845581,33.6973512 119.414091,33.6973512 C122.116167,33.6973512 124.210949,34.5083585 125.697475,36.1299886 C127.138839,37.7974541 127.860482,40.1167042 127.860482,43.0903334 L127.860482,43.5630046 L127.860482,43.8335005 C127.860482,44.0596024 127.836459,44.2168071 127.792257,44.3060755 L116.102798,44.3060755 C116.147,45.7025647 116.48524,46.7387129 117.115597,47.4144242 C117.70079,48.1356825 118.580022,48.495543 119.75137,48.495543 C120.516254,48.495543 121.170633,48.3382421 121.710664,48.0222952 C121.846152,47.9784778 121.970109,47.8991067 122.083496,47.7858155 C122.194962,47.6745423 122.31988,47.5502967 122.454407,47.4144242 C122.498609,47.2797047 122.66869,47.1001108 122.960806,46.8743933 C123.253884,46.6493484 123.670918,46.5365377 124.210949,46.5365377 L124.210949,46.5365377 Z" id="Fill-8" fill="#50351E"></path>
            <polyline id="Fill-9" fill="#ED952D" points="2.08949676 61.6590362 2.08949676 56.0658728 0 56.0658728 0 55.3179973 5.02651531 55.3179973 5.02651531 56.0658728 2.92769773 56.0658728 2.92769773 61.6590362 2.08949676 61.6590362"></polyline>
            <path d="M5.78697874,61.6590362 L5.78697874,55.3179973 L6.56502681,55.3179973 L6.56502681,57.5929495 C6.92853871,57.1719753 7.38756497,56.9615362 7.94066423,56.9615362 C8.28111431,56.9615362 8.57620948,57.0283194 8.82739111,57.1625583 C9.07857274,57.2962208 9.25768619,57.4806192 9.365308,57.7182521 C9.47446727,57.9548279 9.52875863,58.2979685 9.52875863,58.7470974 L9.52875863,61.6590362 L8.75061447,61.6590362 L8.75061447,58.7470974 C8.75061447,58.3580253 8.66547793,58.075422 8.49731885,57.8973655 C8.32810276,57.7197895 8.08941295,57.6320585 7.7802885,57.6320585 C7.55005469,57.6320585 7.33375406,57.6916349 7.13061789,57.8106915 C6.92748171,57.9308051 6.7818079,58.0931988 6.69561435,58.2979685 C6.60894035,58.5020656 6.56502681,58.7851494 6.56502681,59.1450098 L6.56502681,61.6590362 L5.78697874,61.6590362" id="Fill-10" fill="#ED952D"></path>
            <path d="M11.3017319,58.9210219 L13.8664943,58.9210219 C13.8330547,58.5339678 13.7354263,58.2441576 13.5724562,58.0513992 C13.3243494,57.7516917 13.0037902,57.6012133 12.6095292,57.6012133 C12.2507257,57.6012133 11.9509221,57.721327 11.7070434,57.9605933 C11.4626842,58.200244 11.3273882,58.5199385 11.3017319,58.9210219 Z M13.8591914,60.1795245 L14.6628958,60.2798434 C14.5359597,60.7493436 14.3010174,61.1138164 13.9578768,61.3739345 C13.6136792,61.6328995 13.1756007,61.76243 12.6428727,61.76243 C11.9712934,61.76243 11.4386615,61.5556424 11.0453614,61.1419711 C10.6511004,60.7283958 10.4546906,60.1477184 10.4546906,59.4013804 C10.4546906,58.6284251 10.6536949,58.0284335 11.0516073,57.6012133 C11.4495198,57.1745697 11.9650475,56.9615362 12.5990553,56.9615362 C13.2142293,56.9615362 13.7155355,57.1704378 14.1051841,57.5892981 C14.4942562,58.0060443 14.6890325,58.5946011 14.6890325,59.3533349 C14.6890325,59.3998429 14.687495,59.4682596 14.6848045,59.5606991 L11.2589715,59.5606991 C11.2876066,60.0656568 11.4303016,60.451654 11.6871526,60.7206124 C11.9436192,60.9890904 12.263698,61.1226568 12.6465242,61.1226568 C12.932779,61.1226568 13.1756007,61.0474176 13.3776799,60.8971314 C13.5797591,60.7472296 13.7401348,60.5080593 13.8591914,60.1795245 L13.8591914,60.1795245 Z" id="Fill-11" fill="#ED952D"></path>
            <path d="M19.040317,58.332273 L20.6812614,58.332273 C21.2222532,58.332273 21.6066168,58.2315697 21.8343523,58.0300671 C22.0630486,57.8284683 22.1763398,57.5432705 22.1763398,57.1772603 C22.1763398,56.9124337 22.1095566,56.6846983 21.9753176,56.4956875 C21.8410786,56.3071571 21.6640792,56.1829116 21.4462411,56.1228547 C21.3042187,56.0847067 21.0436202,56.0658728 20.662908,56.0658728 L19.040317,56.0658728 L19.040317,58.332273 Z M18.202116,61.6590362 L18.202116,55.3179973 L20.5940109,55.3179973 C21.0144086,55.3179973 21.3366014,55.3378881 21.5585714,55.3775737 C21.8698098,55.4303276 22.1304084,55.5290129 22.341424,55.6746868 C22.5518631,55.8193997 22.7205026,56.0246498 22.8500332,56.2862093 C22.9780262,56.5489218 23.042215,56.8367141 23.042215,57.1520844 C23.042215,57.6910583 22.869924,58.1470097 22.5278403,58.5204189 C22.1836427,58.8938282 21.5648173,59.0812055 20.667136,59.0812055 L19.040317,59.0812055 L19.040317,61.6590362 L18.202116,61.6590362 L18.202116,61.6590362 Z" id="Fill-12" fill="#ED952D"></path>
            <path d="M27.0206668,61.6590362 L27.0206668,60.9839015 C26.6645539,61.503465 26.1782378,61.76243 25.5630638,61.76243 C25.2930484,61.76243 25.0392723,61.7113097 24.80433,61.6062823 C24.5697721,61.503465 24.3943101,61.373358 24.2810189,61.2156728 C24.1671512,61.0584681 24.0867231,60.8662862 24.0412721,60.6380703 C24.0093699,60.4855741 23.9932267,60.2427524 23.9932267,59.9116231 L23.9932267,57.0654104 L24.7730044,57.0654104 L24.7730044,59.613453 C24.7730044,60.019341 24.7875141,60.2939688 24.8189358,60.4355107 C24.8685187,60.6396078 24.972393,60.8005601 25.1300782,60.9170222 C25.2899735,61.0338688 25.4858067,61.0919077 25.7192115,61.0919077 C25.9531929,61.0919077 26.1725684,61.0329079 26.3772421,60.9127942 C26.5809548,60.7932572 26.7266286,60.6301909 26.8122456,60.4244603 C26.8964212,60.2176726 26.9391817,59.917869 26.9391817,59.5262025 L26.9391817,57.0654104 L27.7179024,57.0654104 L27.7179024,61.6590362 L27.0206668,61.6590362" id="Fill-13" fill="#ED952D"></path>
            <g id="Group-17" transform="translate(28.923363, 56.885817)">
                <mask id="mask-2" fill="white">
                    <use xlink:href="#path-1"></use>
                </mask>
                <g id="Clip-15"></g>
                <path d="M0.00557327257,4.77321968 L0.00557327257,0.179593904 L0.705883798,0.179593904 L0.705883798,0.87577252 C0.884516793,0.549928257 1.05008142,0.334204172 1.20257769,0.230810357 C1.35344042,0.127416542 1.5194855,0.0757196342 1.70071295,0.0757196342 C1.96342549,0.0757196342 2.23084648,0.159799177 2.50086193,0.326420809 L2.23401748,1.04864006 C2.04279658,0.935829337 1.85330531,0.880480975 1.66266095,0.880480975 C1.49238787,0.880480975 1.33931505,0.931120882 1.20411515,1.03297724 C1.0683387,1.1358906 0.97224779,1.27791296 0.914208883,1.45962087 C0.827534885,1.73645877 0.784197886,2.03981776 0.784197886,2.36835257 L0.784197886,4.77321968 L0.00557327257,4.77321968" id="Fill-14" fill="#ED952D" mask="url(#mask-2)"></path>
                <path d="M3.66903908,2.50259156 C3.66903908,3.09258973 3.78867225,3.52980335 4.02832297,3.81279107 C4.26701279,4.09587488 4.55682296,4.23684024 4.89736913,4.23684024 C5.24358467,4.23684024 5.54079384,4.09020552 5.78678656,3.79712825 C6.03325973,3.50472363 6.15702482,3.05194328 6.15702482,2.43782629 C6.15702482,1.85186395 6.03537373,1.41320896 5.79456992,1.12224569 C5.5549192,0.830898067 5.26664648,0.685704707 4.93244231,0.685704707 C4.6007365,0.685704707 4.30727488,0.840314976 4.0523457,1.14991988 C3.79703216,1.46010132 3.66903908,1.91028722 3.66903908,2.50259156 Z M2.9640201,6.53418163 L2.9640201,0.179593904 L3.67326708,0.179593904 L3.67326708,0.776606705 C3.84036916,0.542529257 4.02947607,0.367643808 4.24097215,0.250701175 C4.45083469,0.133662451 4.70518732,0.0757196342 5.0054714,0.0757196342 C5.39761839,0.0757196342 5.74344956,0.176999449 6.0442141,0.378598171 C6.34344118,0.579620347 6.57011963,0.865298611 6.7226159,1.23198151 C6.87616917,1.60068232 6.9529458,2.00330321 6.9529458,2.4419582 C6.9529458,2.91203492 6.86723271,3.33454663 6.69965017,3.71151126 C6.52995363,4.08809152 6.28501791,4.37626815 5.96426646,4.57632941 C5.6426502,4.77735159 5.30421803,4.8766135 4.94906604,4.8766135 C4.6905815,4.8766135 4.4570806,4.82222604 4.25134997,4.71325895 C4.04504279,4.60304269 3.87534625,4.46457569 3.74216426,4.29689706 L3.74216426,6.53418163 L2.9640201,6.53418163 L2.9640201,6.53418163 Z" id="Fill-16" fill="#ED952D" mask="url(#mask-2)"></path>
            </g>
            <path d="M37.3254556,59.3622714 C37.3254556,59.9502516 37.4523916,60.3905402 37.7098192,60.6829448 C37.9662858,60.9760221 38.2890552,61.1226568 38.6786077,61.1226568 C39.0650853,61.1226568 39.3867977,60.9754455 39.6432643,60.6818878 C39.9001153,60.3879457 40.0280123,59.9393934 40.0280123,59.3356542 C40.0280123,58.7684296 39.8996348,58.3381345 39.6405738,58.0451533 C39.3831462,57.7521722 39.0624909,57.6048648 38.6786077,57.6048648 C38.2890552,57.6048648 37.9662858,57.7516917 37.7098192,58.0420784 C37.4523916,58.3345791 37.3254556,58.7732341 37.3254556,59.3622714 Z M36.5249222,59.3622714 C36.5249222,58.5119629 36.7609215,57.8817027 37.2346497,57.4717789 C37.6294872,57.1312327 38.1114792,56.9615362 38.6786077,56.9615362 C39.3105015,56.9615362 39.8259331,57.1683238 40.2270166,57.5819952 C40.6281961,57.9955704 40.8281613,58.5674074 40.8281613,59.2975061 C40.8281613,59.8886574 40.7393733,60.3530647 40.5623738,60.6917852 C40.3858548,61.0307939 40.1273703,61.2939869 39.7883616,61.4815563 C39.449449,61.6684531 39.0796911,61.76243 38.6786077,61.76243 C38.0357595,61.76243 37.5156195,61.5572759 37.1191484,61.1436046 C36.7227734,60.7316629 36.5249222,60.1383015 36.5249222,59.3622714 L36.5249222,59.3622714 Z" id="Fill-18" fill="#ED952D"></path>
            <path d="M41.4297864,60.2877229 L42.1995707,60.1659757 C42.2429077,60.4756767 42.3635018,60.711676 42.5620256,60.8767602 C42.7588198,61.0401147 43.0346007,61.1226568 43.3891761,61.1226568 C43.747403,61.1226568 44.0117491,61.0502042 44.1850971,60.9033773 C44.3584451,60.7580879 44.4446386,60.5884874 44.4446386,60.3911167 C44.4446386,60.2150782 44.368919,60.0776682 44.2148853,59.9759079 C44.108897,59.9069146 43.8440705,59.8192797 43.4200213,59.7121384 C42.8481843,59.5684825 42.4527702,59.4437565 42.2324338,59.3382487 C42.0110403,59.2327408 41.8449952,59.0875475 41.7311275,58.9011311 C41.6167793,58.7156757 41.5597974,58.5093685 41.5597974,58.2843236 C41.5597974,58.080707 41.6063054,57.8911196 41.7002823,57.7161381 C41.7942592,57.5422135 41.9222523,57.3970202 42.0841655,57.2811345 C42.2041831,57.1918661 42.3698438,57.1160504 42.5781689,57.0544561 C42.7870705,56.9912283 43.0110584,56.9615362 43.2509013,56.9615362 C43.6112422,56.9615362 43.92815,57.0132331 44.2001834,57.1166269 C44.4733698,57.2200207 44.6739115,57.3615626 44.8034421,57.5391386 C44.9345101,57.7161381 45.0237785,57.9537709 45.071824,58.249923 L44.3103996,58.3537973 C44.275903,58.1172215 44.1762567,57.9333996 44.0101155,57.8002176 C43.844647,57.6670356 43.6100891,57.6012133 43.307691,57.6012133 C42.9500407,57.6012133 42.6941506,57.6607897 42.5410778,57.7787893 C42.3885815,57.8973655 42.3123814,58.0357364 42.3123814,58.1939981 C42.3123814,58.295278 42.3441875,58.38618 42.4074153,58.4661276 C42.4717001,58.5497267 42.5702894,58.6200652 42.7061619,58.6744527 C42.783419,58.7031839 43.0126919,58.7694866 43.3944611,58.8733608 C43.9448698,59.0197073 44.3292334,59.1407818 44.546495,59.2342783 C44.7648135,59.3277747 44.9345101,59.4646082 45.0587556,59.6432412 C45.1830972,59.8212976 45.2452681,60.0443246 45.2452681,60.3090551 C45.2452681,60.5696536 45.1695484,60.8135323 45.0181092,61.0422287 C44.8666699,61.2715016 44.6478709,61.4496541 44.3626731,61.5738997 C44.0769948,61.7002592 43.753745,61.76243 43.3944611,61.76243 C42.7969679,61.76243 42.3415931,61.6386649 42.0292976,61.3900778 C41.7159452,61.1425476 41.5164604,60.7754803 41.4297864,60.2877229" id="Fill-19" fill="#ED952D"></path>
            <path d="M46.7586998,58.9210219 L49.3239427,58.9210219 C49.2889656,58.5339678 49.1918177,58.2441576 49.0299045,58.0513992 C48.7818939,57.7516917 48.4601815,57.6012133 48.0659205,57.6012133 C47.7081741,57.6012133 47.40789,57.721327 47.1639152,57.9605933 C46.9201326,58.200244 46.7848366,58.5199385 46.7586998,58.9210219 Z M49.3155828,60.1795245 L50.1198636,60.2798434 C49.9939846,60.7493436 49.7578892,61.1138164 49.4148447,61.3739345 C49.0712236,61.6328995 48.6330491,61.76243 48.0998406,61.76243 C47.4271082,61.76243 46.8949567,61.5556424 46.5017527,61.1419711 C46.1079722,60.7283958 45.9110819,60.1477184 45.9110819,59.4013804 C45.9110819,58.6284251 46.1100862,58.0284335 46.5079987,57.6012133 C46.9054306,57.1745697 47.4224958,56.9615362 48.0564075,56.9615362 C48.6716776,56.9615362 49.1725034,57.1704378 49.5620559,57.5892981 C49.951128,58.0060443 50.1459043,58.5946011 50.1459043,59.3533349 C50.1459043,59.3998429 50.1449434,59.4682596 50.1422528,59.5606991 L46.7159394,59.5606991 C46.7445745,60.0656568 46.8871734,60.451654 47.1441205,60.7206124 C47.4000105,60.9890904 47.7200893,61.1226568 48.1039725,61.1226568 C48.3901312,61.1226568 48.6330491,61.0474176 48.8351282,60.8971314 C49.0372074,60.7472296 49.1965261,60.5080593 49.3155828,60.1795245 L49.3155828,60.1795245 Z" id="Fill-20" fill="#ED952D"></path>
            <polygon id="Fill-21" fill="#ED952D" points="50.794614 59.7554754 53.1868932 59.7554754 53.1868932 58.9731993 50.794614 58.9731993"></polygon>
            <path d="M54.5666625,59.3664994 C54.5666625,59.9544796 54.6904276,60.3940955 54.9385343,60.6855392 C55.1871215,60.9770791 55.4790457,61.1226568 55.8164208,61.1226568 C56.1563905,61.1226568 56.4457202,60.983325 56.683353,60.7043731 C56.9214663,60.4271508 57.0410994,60.0025251 57.0410994,59.4312646 C57.0410994,58.8024458 56.9188718,58.3413055 56.6775875,58.0467869 C56.4353424,57.7532292 56.1360192,57.6048648 55.7814438,57.6048648 C55.4362852,57.6048648 55.147436,57.7474637 54.9149921,58.0300671 C54.6826442,58.3125743 54.5666625,58.7586283 54.5666625,59.3664994 Z M57.0275506,61.6590362 L57.0275506,61.0793198 C56.7361069,61.5352711 56.3084063,61.76243 55.7432957,61.76243 C55.3771893,61.76243 55.0414477,61.6622072 54.7332841,61.460128 C54.4256972,61.2579528 54.1880643,60.9760221 54.0199053,60.6140476 C53.8506892,60.2521693 53.7666096,59.8359995 53.7666096,59.3664994 C53.7666096,58.908434 53.8429058,58.4916878 53.9948255,58.117798 C54.1478023,57.7443888 54.3782282,57.4586144 54.6831247,57.2597063 C54.9891742,57.060702 55.3312579,56.9615362 55.7083186,56.9615362 C55.9856369,56.9615362 56.2316296,57.019479 56.4477381,57.1365177 C56.6650957,57.2534603 56.8405577,57.4048996 56.9758537,57.5929495 L56.9758537,55.3179973 L57.7497699,55.3179973 L57.7497699,61.6590362 L57.0275506,61.6590362 L57.0275506,61.6590362 Z" id="Fill-22" fill="#ED952D"></path>
            <path d="M58.9659925,61.6590362 L58.9659925,57.0654104 L59.6663991,57.0654104 L59.6663991,57.7615891 C59.8444555,57.4357448 60.0105006,57.2200207 60.162036,57.1166269 C60.3133792,57.0132331 60.4795203,56.9615362 60.6612282,56.9615362 C60.9239408,56.9615362 61.1902087,57.0456157 61.4618577,57.2122373 L61.1933797,57.9344566 C61.0022549,57.8216459 60.8137245,57.7662975 60.6230802,57.7662975 C60.4518462,57.7662975 60.2993499,57.8169374 60.1635734,57.9187938 C60.0287579,58.0217071 59.9317061,58.1637295 59.8736672,58.3454374 C59.7875697,58.6222753 59.7447132,58.9256343 59.7447132,59.2541691 L59.7447132,61.6590362 L58.9659925,61.6590362" id="Fill-23" fill="#ED952D"></path>
            <path d="M61.9281868,61.6590362 L62.7069076,61.6590362 L62.7069076,57.0654104 L61.9281868,57.0654104 L61.9281868,61.6590362 Z M61.9281868,56.2136606 L62.7069076,56.2136606 L62.7069076,55.3179973 L61.9281868,55.3179973 L61.9281868,56.2136606 Z" id="Fill-24" fill="#ED952D"></path>
            <path d="M65.1687566,61.6590362 L63.4212474,57.0654104 L64.2428246,57.0654104 L65.2287173,59.8161087 C65.3352821,60.1132218 65.4339675,60.4218658 65.523332,60.7425212 C65.5922292,60.4996994 65.6883201,60.2077753 65.8125656,59.8677095 L66.834012,57.0654104 L67.634161,57.0654104 L65.8952038,61.6590362 L65.1687566,61.6590362" id="Fill-25" fill="#ED952D"></path>
            <path d="M68.9105365,58.9210219 L71.4752988,58.9210219 C71.4408022,58.5339678 71.3431738,58.2441576 71.1812607,58.0513992 C70.933154,57.7516917 70.6114416,57.6012133 70.2170845,57.6012133 C69.8594342,57.6012133 69.5591501,57.721327 69.3147909,57.9605933 C69.0709122,58.200244 68.9360966,58.5199385 68.9105365,58.9210219 Z M71.4668428,60.1795245 L72.2711237,60.2798434 C72.1453407,60.7493436 71.9092454,61.1138164 71.5661048,61.3739345 C71.2224837,61.6328995 70.7843091,61.76243 70.2511968,61.76243 C69.5790409,61.76243 69.0468895,61.5556424 68.6541659,61.1419711 C68.2597128,60.7283958 68.0624381,60.1477184 68.0624381,59.4013804 C68.0624381,58.6284251 68.2613463,58.0284335 68.6592587,57.6012133 C69.0572673,57.1745697 69.5743324,56.9615362 70.2078598,56.9615362 C70.8230338,56.9615362 71.3237635,57.1704378 71.7135082,57.5892981 C72.1023881,58.0060443 72.2972605,58.5946011 72.2972605,59.3533349 C72.2972605,59.3998429 72.2956269,59.4682596 72.293609,59.5606991 L68.8675838,59.5606991 C68.8968916,60.0656568 69.0384335,60.451654 69.295861,60.7206124 C69.5523276,60.9890904 69.8721182,61.1226568 70.2559052,61.1226568 C70.5409109,61.1226568 70.7843091,61.0474176 70.9864844,60.8971314 C71.189044,60.7472296 71.3489393,60.5080593 71.4668428,60.1795245 L71.4668428,60.1795245 Z" id="Fill-26" fill="#ED952D"></path>
            <path d="M73.2482722,61.6590362 L73.2482722,57.0654104 L73.9495436,57.0654104 L73.9495436,57.7182521 C74.2865344,57.2137748 74.7742918,56.9615362 75.411855,56.9615362 C75.688789,56.9615362 75.942469,57.0111191 76.1743363,57.1108614 C76.4067802,57.2101233 76.5811852,57.3407109 76.6954373,57.5020475 C76.8105542,57.6639607 76.8919432,57.8546051 76.9378747,58.0781125 C76.9670863,58.2216723 76.9807312,58.4739109 76.9807312,58.8348284 L76.9807312,61.6590362 L76.2030675,61.6590362 L76.2030675,58.8650009 C76.2030675,58.5474205 76.1723184,58.3098838 76.1117812,58.1532556 C76.0510517,57.9955704 75.9441025,57.8702679 75.7898766,57.7772519 C75.6354585,57.6826984 75.455192,57.6362865 75.2462904,57.6362865 C74.9158337,57.6362865 74.6290024,57.7412178 74.3882947,57.9521373 C74.147587,58.162192 74.0269929,58.5616419 74.0269929,59.1507753 L74.0269929,61.6590362 L73.2482722,61.6590362" id="Fill-27" fill="#ED952D"></path>
            <path d="M80.7100193,61.6590362 L80.7100193,55.3179973 L81.9733265,55.3179973 L83.4747469,59.8077488 C83.6121569,60.2260325 83.7133406,60.5389045 83.777241,60.7461726 C83.8492131,60.5147857 83.9620238,60.1769301 84.1149045,59.7288582 L85.6326603,55.3179973 L86.7617285,55.3179973 L86.7617285,61.6590362 L85.9527392,61.6590362 L85.9527392,56.3515511 L84.1102921,61.6590362 L83.3535762,61.6590362 L81.5190086,56.2607452 L81.5190086,61.6590362 L80.7100193,61.6590362" id="Fill-28" fill="#ED952D"></path>
            <path d="M90.9490819,59.3533349 C90.665902,59.4682596 90.2424294,59.5670411 89.6768383,59.6473731 C89.3578165,59.6938811 89.1311381,59.7450975 88.9980522,59.8036169 C88.8659272,59.8605027 88.7634943,59.9450627 88.6908495,60.0558555 C88.6198384,60.1671288 88.5832277,60.2907017 88.5832277,60.4265743 C88.5832277,60.634515 88.6621183,60.805749 88.8187465,60.9446964 C88.9760473,61.0835478 89.2063772,61.1525411 89.5086792,61.1525411 C89.8090594,61.1525411 90.0748469,61.0872953 90.3093087,60.9561312 C90.542233,60.8244867 90.7146201,60.6453732 90.8247403,60.4171573 C90.9072824,60.2412149 90.9490819,59.9821538 90.9490819,59.6391093 L90.9490819,59.3533349 Z M91.0137511,61.0919077 C90.7259588,61.3373239 90.44816,61.510768 90.1813156,61.6114712 C89.9150477,61.7128471 89.6283124,61.76243 89.3222629,61.76243 C88.8187465,61.76243 88.430251,61.6391454 88.1592746,61.3922879 C87.8882022,61.1457186 87.7530023,60.8307326 87.7530023,60.4480025 C87.7530023,60.2223811 87.8041226,60.0176114 87.9058829,59.831195 C88.0087963,59.6458356 88.1424587,59.4968947 88.3081195,59.3836996 C88.4741645,59.2708889 88.6605809,59.1862328 88.8690021,59.12829 C89.0214983,59.0880279 89.2523087,59.0493994 89.5608566,59.0118278 C90.189195,58.9365887 90.6517767,58.8474163 90.9490819,58.7434459 C90.9517725,58.6363046 90.9526373,58.5694253 90.9526373,58.5407902 C90.9526373,58.2227293 90.8799926,57.9992219 90.7332617,57.8692109 C90.5333927,57.6942293 90.2382975,57.6048648 89.846631,57.6048648 C89.4799481,57.6048648 89.2094522,57.6696301 89.0350472,57.7986801 C88.8606422,57.9276341 88.7320725,58.1538321 88.647993,58.4795803 L87.8871452,58.375706 C87.9555619,58.0498618 88.0693335,57.7877258 88.2282679,57.5866075 C88.3873944,57.3866423 88.6161869,57.2315516 88.916471,57.1228728 C89.2162746,57.016308 89.5635471,56.9615362 89.9589612,56.9615362 C90.3506278,56.9615362 90.6702261,57.0069872 90.9151618,57.0999071 C91.1600975,57.1918661 91.3391149,57.3077517 91.4556732,57.4482366 C91.5709823,57.5887215 91.6514104,57.7641835 91.6978223,57.9777936 C91.7235746,58.1104951 91.7360664,58.3496654 91.7360664,58.6957849 L91.7360664,59.7334705 C91.7360664,60.4574194 91.7527863,60.9153887 91.7855533,61.1081471 C91.8196655,61.2981188 91.8853917,61.4825172 91.9826357,61.6590362 L91.1698988,61.6590362 C91.0884137,61.4972191 91.0371973,61.3086888 91.0137511,61.0919077 L91.0137511,61.0919077 Z" id="Fill-29" fill="#ED952D"></path>
            <path d="M92.9340318,61.6590362 L92.9340318,57.0654104 L93.6349188,57.0654104 L93.6349188,57.7615891 C93.8130714,57.4357448 93.978636,57.2200207 94.1299792,57.1166269 C94.280938,57.0132331 94.4480401,56.9615362 94.6281144,56.9615362 C94.8919801,56.9615362 95.1589206,57.0456157 95.4292243,57.2122373 L95.161419,57.9344566 C94.9708707,57.8216459 94.7812834,57.7662975 94.5911195,57.7662975 C94.4208464,57.7662975 94.2678696,57.8169374 94.1320932,57.9187938 C93.9967972,58.0217071 93.9001297,58.1637295 93.8421869,58.3454374 C93.755609,58.6222753 93.712272,58.9256343 93.712272,59.2541691 L93.712272,61.6590362 L92.9340318,61.6590362" id="Fill-30" fill="#ED952D"></path>
            <polyline id="Fill-31" fill="#ED952D" points="95.897187 61.6590362 95.897187 55.3179973 96.6760999 55.3179973 96.6760999 58.9335138 98.5181626 57.0654104 99.5271171 57.0654104 97.7696144 58.7694866 99.7039244 61.6590362 98.7449371 61.6590362 97.2238181 59.3099979 96.6760999 59.8379214 96.6760999 61.6590362 95.897187 61.6590362"></polyline>
            <path d="M100.910826,58.9210219 L103.475492,58.9210219 C103.4409,58.5339678 103.342887,58.2441576 103.180493,58.0513992 C102.93354,57.7516917 102.612596,57.6012133 102.217663,57.6012133 C101.859243,57.6012133 101.558479,57.721327 101.31633,57.9605933 C101.070337,58.200244 100.936771,58.5199385 100.910826,58.9210219 Z M103.467805,60.1795245 L104.271125,60.2798434 C104.145246,60.7493436 103.909823,61.1138164 103.566779,61.3739345 C103.223734,61.6328995 102.78556,61.76243 102.251294,61.76243 C101.58058,61.76243 101.047275,61.5556424 100.654263,61.1419711 C100.25933,60.7283958 100.062343,60.1477184 100.062343,59.4013804 C100.062343,58.6284251 100.262213,58.0284335 100.660029,57.6012133 C101.057845,57.1745697 101.573853,56.9615362 102.207093,56.9615362 C102.823035,56.9615362 103.32463,57.1704378 103.713798,57.5892981 C104.102005,58.0060443 104.29707,58.5946011 104.29707,59.3533349 C104.29707,59.3998429 104.296109,59.4682596 104.293226,59.5606991 L100.867585,59.5606991 C100.896413,60.0656568 101.038627,60.451654 101.296151,60.7206124 C101.551753,60.9890904 101.870774,61.1226568 102.255138,61.1226568 C102.541489,61.1226568 102.78556,61.0474176 102.98639,60.8971314 C103.189142,60.7472296 103.348652,60.5080593 103.467805,60.1795245 L103.467805,60.1795245 Z" id="Fill-32" fill="#ED952D"></path>
            <g id="Group-36" transform="translate(104.739088, 55.444453)">
                <mask id="mask-4" fill="white">
                    <use xlink:href="#path-3"></use>
                </mask>
                <g id="Clip-34"></g>
                <path d="M2.21009085,5.5179242 L2.32251721,6.20679991 C2.10342994,6.25273136 1.90740449,6.27521664 1.73540177,6.27521664 C1.45193359,6.27521664 1.23188542,6.23024609 1.07717906,6.14107373 C0.920550883,6.05170919 0.811007249,5.93361347 0.74854816,5.78842011 C0.685128162,5.64284238 0.653418163,5.3362163 0.653418163,4.86825359 L0.653418163,2.22575366 L0.0826381794,2.22575366 L0.0826381794,1.6209575 L0.653418163,1.6209575 L0.653418163,0.483048986 L1.42694996,0.0156628177 L1.42694996,1.6209575 L2.21009085,1.6209575 L2.21009085,2.22575366 L1.42694996,2.22575366 L1.42694996,4.91216713 C1.42694996,5.13461758 1.44040269,5.27712039 1.46826905,5.34140521 C1.49613541,5.40463303 1.53937632,5.45411984 1.60279632,5.49178748 C1.6642945,5.52993557 1.75269813,5.54828893 1.86800722,5.54828893 C1.95448903,5.54828893 2.06979812,5.53829548 2.21009085,5.5179242" id="Fill-33" fill="#ED952D" mask="url(#mask-4)"></path>
                <path d="M3.67643808,3.94395516 C3.67643808,4.53395332 3.7955908,4.97116695 4.03581807,5.25415467 C4.27508442,5.53723848 4.56431805,5.67820384 4.90447986,5.67820384 C5.25040712,5.67820384 5.54732802,5.53156911 5.79332074,5.23849185 C6.04027437,4.94608722 6.16327073,4.49330687 6.16327073,3.87918989 C6.16327073,3.29322754 6.0431571,2.85457255 5.80196892,2.56360929 C5.56174166,2.27226166 5.27346894,2.1270683 4.94003349,2.1270683 C4.60851987,2.1270683 4.31448169,2.28167857 4.05887988,2.59128347 C3.80519989,2.90146492 3.67643808,3.35165081 3.67643808,3.94395516 Z M2.97209173,7.97554522 L2.97209173,1.6209575 L3.68124262,1.6209575 L3.68124262,2.2179703 C3.8484408,1.98389285 4.03773988,1.8090074 4.24721806,1.69206477 C4.45765714,1.57502605 4.71325895,1.51708323 5.01306258,1.51708323 C5.40607439,1.51708323 5.75104074,1.61836304 6.05084437,1.81996177 C6.35160891,2.02098394 6.57742254,2.30666221 6.73116799,2.6733451 C6.88395253,3.04204591 6.95986434,3.44466681 6.95986434,3.8833218 C6.95986434,4.35339851 6.87530435,4.77591023 6.70618435,5.15287485 C6.53802527,5.52945511 6.29299345,5.81763174 5.97108892,6.01769301 C5.65014529,6.21871518 5.3119053,6.31797709 4.95636895,6.31797709 C4.69788441,6.31797709 4.46438351,6.26358964 4.25778806,6.15462255 C4.05215352,6.04440628 3.88207262,5.90593928 3.75042807,5.73826065 L3.75042807,7.97554522 L2.97209173,7.97554522 L2.97209173,7.97554522 Z" id="Fill-35" fill="#ED952D" mask="url(#mask-4)"></path>
            </g>
            <polygon id="Fill-37" fill="#ED952D" points="112.619503 61.6590362 113.399761 61.6590362 113.399761 55.3179973 112.619503 55.3179973"></polygon>
            <path d="M117.537436,59.3533349 C117.255889,59.4682596 116.831168,59.5670411 116.267114,59.6473731 C115.94617,59.6938811 115.720357,59.7450975 115.587751,59.8036169 C115.454185,59.8605027 115.352328,59.9450627 115.279299,60.0558555 C115.208192,60.1671288 115.171678,60.2907017 115.171678,60.4265743 C115.171678,60.634515 115.250472,60.805749 115.408061,60.9446964 C115.56565,61.0835478 115.795308,61.1525411 116.097994,61.1525411 C116.397798,61.1525411 116.66493,61.0872953 116.898431,60.9561312 C117.130971,60.8244867 117.303935,60.6453732 117.412518,60.4171573 C117.496117,60.2412149 117.537436,59.9821538 117.537436,59.6391093 L117.537436,59.3533349 Z M117.602778,61.0919077 C117.314505,61.3373239 117.036802,61.510768 116.77063,61.6114712 C116.503498,61.7128471 116.217147,61.76243 115.911578,61.76243 C115.408061,61.76243 115.018893,61.6391454 114.748878,61.3922879 C114.475979,61.1457186 114.341452,60.8307326 114.341452,60.4480025 C114.341452,60.2223811 114.39238,60.0176114 114.495198,59.831195 C114.598015,59.6458356 114.732542,59.4968947 114.896858,59.3836996 C115.063095,59.2708889 115.250472,59.1862328 115.458028,59.12829 C115.610813,59.0880279 115.841431,59.0493994 116.149883,59.0118278 C116.779278,58.9365887 117.240515,58.8474163 117.537436,58.7434459 C117.541279,58.6363046 117.543201,58.5694253 117.543201,58.5407902 C117.543201,58.2227293 117.469211,57.9992219 117.323153,57.8692109 C117.123284,57.6942293 116.827324,57.6048648 116.435273,57.6048648 C116.070128,57.6048648 115.79819,57.6696301 115.624266,57.7986801 C115.44938,57.9276341 115.320618,58.1538321 115.237019,58.4795803 L114.475019,58.375706 C114.545165,58.0498618 114.659513,57.7877258 114.817102,57.5866075 C114.975652,57.3866423 115.205309,57.2315516 115.505113,57.1228728 C115.804917,57.016308 116.151805,56.9615362 116.547699,56.9615362 C116.93975,56.9615362 117.258772,57.0069872 117.503804,57.0999071 C117.748836,57.1918661 117.929487,57.3077517 118.043835,57.4482366 C118.160105,57.5887215 118.23986,57.7641835 118.285984,57.9777936 C118.311928,58.1104951 118.325381,58.3496654 118.325381,58.6957849 L118.325381,59.7334705 C118.325381,60.4574194 118.341717,60.9153887 118.375348,61.1081471 C118.408019,61.2981188 118.474322,61.4825172 118.572335,61.6590362 L117.758445,61.6590362 C117.677728,61.4972191 117.625839,61.3086888 117.602778,61.0919077 L117.602778,61.0919077 Z" id="Fill-38" fill="#ED952D"></path>
            <path d="M122.530319,59.9759079 L123.296164,60.0762268 C123.212565,60.6030933 122.998282,61.0166685 122.653316,61.3148386 C122.30931,61.6136813 121.884588,61.76243 121.383955,61.76243 C120.75552,61.76243 120.249121,61.5577564 119.86764,61.1457186 C119.485198,60.7352182 119.294938,60.146181 119.294938,59.3789912 C119.294938,58.8828738 119.376616,58.4498882 119.53997,58.0781125 C119.705247,57.7051837 119.956044,57.4263279 120.292362,57.2408724 C120.627719,57.0544561 120.992865,56.9615362 121.387798,56.9615362 C121.88651,56.9615362 122.294896,57.0868387 122.611996,57.3402304 C122.929096,57.592373 123.132809,57.950696 123.222174,58.4153916 L122.464977,58.5308929 C122.39387,58.2227293 122.265108,57.990862 122.081575,57.8351947 C121.899963,57.679047 121.677993,57.6012133 121.418547,57.6012133 C121.026497,57.6012133 120.707475,57.7422748 120.462443,58.0232446 C120.217411,58.3041183 120.095376,58.7486348 120.095376,59.3575629 C120.095376,59.9748509 120.212607,60.4234033 120.44899,60.7023552 C120.686335,60.9827484 120.994787,61.1226568 121.375306,61.1226568 C121.680876,61.1226568 121.935516,61.0292564 122.142112,60.8413026 C122.345825,60.6532527 122.475547,60.36498 122.530319,59.9759079" id="Fill-39" fill="#ED952D"></path>
            <path d="M124.55015,58.9210219 L127.114816,58.9210219 C127.079263,58.5339678 126.982211,58.2441576 126.820778,58.0513992 C126.571903,57.7516917 126.25192,57.6012133 125.856986,57.6012133 C125.498567,57.6012133 125.197803,57.721327 124.954693,57.9605933 C124.710622,58.200244 124.576095,58.5199385 124.55015,58.9210219 Z M127.107129,60.1795245 L127.91141,60.2798434 C127.78457,60.7493436 127.549147,61.1138164 127.206103,61.3739345 C126.862097,61.6328995 126.423923,61.76243 125.891579,61.76243 C125.219904,61.76243 124.686599,61.5556424 124.293587,61.1419711 C123.899615,60.7283958 123.702628,60.1477184 123.702628,59.4013804 C123.702628,58.6284251 123.900576,58.0284335 124.298392,57.6012133 C124.697169,57.1745697 125.213177,56.9615362 125.847377,56.9615362 C126.462359,56.9615362 126.963954,57.1704378 127.353122,57.5892981 C127.741329,58.0060443 127.937354,58.5946011 127.937354,59.3533349 C127.937354,59.3998429 127.935433,59.4682596 127.93255,59.5606991 L124.506909,59.5606991 C124.536697,60.0656568 124.677951,60.451654 124.935475,60.7206124 C125.192037,60.9890904 125.511059,61.1226568 125.894462,61.1226568 C126.180813,61.1226568 126.423923,61.0474176 126.626675,60.8971314 C126.828465,60.7472296 126.987976,60.5080593 127.107129,60.1795245 L127.107129,60.1795245 Z" id="Fill-40" fill="#ED952D"></path>
            <path d="M47.0150704,10.2779794 C47.1550748,19.4343858 54.5484052,26.8278123 63.7048116,26.9677207 C63.5649033,17.8113143 56.1720533,10.4179839 47.0150704,10.2779794" id="Fill-41" fill="#ED952D"></path>
            <g id="Group-45" transform="translate(49.775089, 0.000000)">
                <path d="M31.1470025,10.2779794 C31.006998,19.4343858 23.6136676,26.8278123 14.4571651,26.9677207 C14.5971696,17.8113143 21.9900195,10.4179839 31.1470025,10.2779794" id="Fill-42" fill="#ED952D"></path>
                <path d="M14.1934917,20.0621477 C16.5812546,14.2715175 21.7863068,9.99028326 28.145603,8.88312383 C28.7577021,6.52937708 28.1478131,3.9233917 26.303156,2.07988767 C23.5332395,-0.690605344 19.0419505,-0.690605344 16.2720341,2.07988767 L14.1934917,4.15737306 L12.1149493,2.07988767 C9.34503282,-0.690605344 4.85432041,-0.690605344 2.08325085,2.07988767 C0.239266357,3.92396825 -0.370238262,6.52937708 0.241380357,8.88312383 C6.60067654,9.99028326 11.8058248,14.2715175 14.1934917,20.0621477" id="Fill-44" fill="#AD252A"></path>
            </g>
        </g>
    </g>
</svg>
